<?xml version="1.0" standalone="no"?>
<!DOCTYPE svg PUBLIC "-//W3C//DTD SVG 20010904//EN"
 "http://www.w3.org/TR/2001/REC-SVG-20010904/DTD/svg10.dtd">
<svg version="1.0" xmlns="http://www.w3.org/2000/svg"
 width="192.000000pt" height="192.000000pt" viewBox="0 0 192.000000 192.000000"
 preserveAspectRatio="xMidYMid meet">
<metadata>
Created by potrace 1.10, written by Peter Selinger 2001-2011
</metadata>
<g transform="translate(0.000000,192.000000) scale(0.100000,-0.100000)"
fill="#000000" stroke="none">
<path d="M1775 1624 c-5 -2 -41 -8 -80 -13 -43 -5 -56 -9 -34 -10 l36 -1 2
-77 c1 -42 4 -80 6 -84 5 -7 -131 -23 -142 -16 -5 3 -7 41 -5 85 l3 81 32 4
c18 2 -7 5 -55 5 -72 2 -88 -1 -88 -13 0 -10 7 -14 23 -11 12 3 23 5 25 7 20
16 53 -10 41 -33 -11 -21 -12 -37 0 -20 5 9 8 -13 7 -54 l-1 -67 83 2 84 2 -5
-58 c-11 -115 -5 -107 -83 -114 -38 -4 -70 -6 -70 -5 -7 5 -6 115 1 129 4 10
6 19 4 20 -35 21 -106 47 -130 47 -17 0 -50 11 -75 25 -25 14 -55 27 -67 29
-23 3 -45 49 -46 94 -1 21 -21 33 -21 12 0 -15 -47 -12 -53 3 -4 10 -6 10 -6
0 -1 -16 -68 -18 -73 -2 -2 6 -27 9 -63 6 -45 -2 -54 -5 -37 -11 18 -7 20 -11
11 -23 -10 -11 -9 -13 2 -11 8 2 18 8 22 13 4 6 5 -3 1 -20 -4 -23 -3 -26 5
-15 13 19 14 5 2 -37 -6 -22 -6 -32 1 -30 6 1 12 -6 13 -15 2 -10 -1 -18 -6
-18 -6 0 -7 -4 -4 -10 3 -5 1 -10 -5 -10 -7 0 -5 -7 4 -16 20 -19 20 -31 1
-50 -8 -9 -15 -12 -15 -8 0 16 -21 -13 -25 -34 -6 -35 20 -26 44 13 23 40 38
100 21 90 -5 -3 -10 1 -10 10 0 10 5 13 12 9 8 -5 9 -2 5 10 -4 9 1 25 10 35
15 19 17 18 43 -11 42 -45 44 -92 6 -121 -7 -6 -4 -7 7 -3 31 10 18 -11 -17
-28 -40 -19 -46 -20 -46 -6 0 6 5 9 12 8 7 -2 12 2 13 7 0 6 4 16 9 24 6 9 -1
7 -17 -5 -14 -10 -29 -31 -32 -47 -4 -15 -11 -25 -16 -21 -5 3 -9 -1 -9 -9 0
-18 -27 -30 -35 -16 -4 5 -11 7 -16 4 -5 -3 -6 1 -3 10 5 11 2 14 -10 9 -9 -3
-16 -13 -16 -21 0 -13 -3 -13 -15 -3 -13 11 -13 14 2 26 16 12 15 13 -10 4
-34 -12 -61 -12 -32 0 21 8 27 43 11 68 -9 15 10 42 29 42 6 0 20 10 31 21
l19 21 -34 -7 c-18 -4 -51 -15 -73 -25 l-39 -17 30 -32 30 -32 -20 -20 c-28
-28 -49 -9 -49 42 0 34 -4 40 -32 52 -35 15 -77 54 -44 41 23 -9 20 2 -13 44
-16 20 -32 51 -36 67 -6 22 -9 25 -12 12 -3 -10 0 -31 6 -48 9 -27 9 -28 -9
-19 -15 8 -20 21 -20 55 0 25 5 45 10 45 6 0 10 5 10 10 0 6 -122 10 -345 10
-291 0 -345 -2 -345 -14 0 -11 15 -14 60 -15 33 0 65 -3 72 -7 6 -4 8 -3 5 3
-7 11 168 11 179 0 4 -4 13 -2 21 4 9 9 17 8 27 0 8 -7 16 -8 19 -4 4 6 211 9
249 4 3 -1 6 -17 6 -37 0 -27 -8 -43 -30 -64 -16 -16 -29 -31 -29 -34 4 -29
-1 -33 -48 -32 -27 1 -48 -2 -45 -5 2 -4 -24 -10 -59 -14 -34 -4 -77 -8 -94
-10 -18 -2 -33 0 -33 5 0 5 -7 7 -15 4 -9 -4 -16 3 -21 21 -4 17 -11 24 -21
21 -8 -3 -11 -1 -8 4 8 13 -75 13 -109 0 -16 -6 -26 -6 -26 0 0 5 -8 6 -17 3
-14 -5 -14 -8 -2 -11 7 -3 17 -9 20 -15 4 -5 14 -5 27 2 23 12 71 15 96 5 19
-7 21 -35 3 -53 -10 -11 9 -12 108 -7 269 14 301 18 326 37 l24 18 -40 -6
c-22 -3 -37 -2 -32 2 4 5 26 12 50 16 l42 6 -53 2 c-48 1 -52 3 -38 16 9 9 33
15 61 15 39 0 46 -3 41 -16 -3 -8 -2 -13 3 -10 5 3 12 -4 15 -17 3 -12 15 -37
26 -55 17 -27 24 -31 35 -22 11 9 16 4 24 -26 16 -57 57 -94 103 -94 24 0 37
-4 33 -10 -4 -6 12 -10 42 -10 40 0 50 4 58 22 6 13 34 41 64 63 l53 39 -4 54
c-4 49 -4 52 8 30 7 -14 15 -42 18 -64 3 -21 8 -48 10 -59 3 -11 12 -49 20
-85 9 -36 20 -79 25 -97 7 -26 6 -35 -10 -52 -68 -72 -379 -150 -434 -108 -11
9 -16 19 -12 24 5 4 13 0 18 -10 6 -9 18 -17 27 -16 10 0 12 3 5 6 -7 2 -13
10 -13 17 0 7 -9 21 -20 31 -12 11 -18 26 -15 39 2 12 6 48 9 81 3 33 9 85 12
115 5 47 3 58 -14 73 -20 18 -20 17 -33 -102 -9 -87 -16 -121 -26 -121 -16 0
-16 0 2 -43 22 -52 19 -94 -9 -130 -14 -19 -25 -49 -27 -72 -3 -47 -9 -61 -19
-46 -3 7 -7 -2 -7 -19 0 -40 -7 -46 -32 -21 -41 41 -117 71 -178 70 -32 0 -52
-3 -45 -6 6 -2 12 -9 12 -14 0 -5 -11 -3 -25 3 -29 13 -29 12 27 176 21 62 38
121 38 131 0 10 11 37 24 62 62 118 86 163 86 164 0 0 -16 -1 -35 -3 -19 -2
-32 -8 -29 -13 3 -5 10 -7 15 -4 5 4 9 2 9 -4 0 -10 -29 -14 -335 -36 -115 -9
-211 -18 -213 -20 -8 -8 10 -25 19 -19 6 3 45 7 87 9 42 2 78 5 80 6 7 5 30 4
55 -2 15 -4 25 -4 23 0 -3 4 24 7 58 7 35 1 91 4 125 8 38 4 61 3 61 -3 0 -21
-43 -81 -58 -81 -15 -1 -14 -3 2 -15 17 -13 17 -15 3 -21 -9 -3 -14 -10 -11
-15 3 -5 -16 -9 -43 -9 -72 0 -153 -12 -148 -21 3 -4 15 -6 27 -4 53 11 172
16 160 7 -7 -5 -10 -16 -6 -25 5 -15 -2 -17 -60 -17 -36 0 -66 -3 -66 -8 0 -4
21 -6 48 -5 33 2 41 0 27 -6 -20 -8 -20 -8 0 -14 11 -2 -8 -4 -43 -2 -40 1
-60 -1 -54 -7 5 -5 40 -8 76 -6 81 4 83 -13 4 -26 -66 -11 -112 -2 -104 19 3
9 0 15 -9 15 -29 0 -22 16 8 18 42 3 48 12 9 12 -23 0 -32 5 -32 16 0 9 -5 14
-11 12 -16 -5 -21 -58 -6 -58 7 -1 -7 -10 -30 -22 -24 -11 -41 -24 -38 -28 3
-5 -12 -11 -32 -13 l-38 -4 43 -1 c45 -2 52 -15 19 -36 -12 -8 -22 -7 -37 2
-24 14 -110 16 -110 2 0 -5 21 -10 48 -11 26 0 56 -4 67 -9 18 -7 17 -8 -10
-15 -16 -4 -34 -8 -39 -9 -5 -1 7 -12 27 -24 21 -12 37 -26 37 -31 0 -5 12 -9
27 -7 16 1 34 -2 42 -8 11 -8 13 -8 8 1 -13 21 144 14 163 -7 8 -9 23 -19 33
-23 23 -8 38 -48 25 -64 -6 -7 -6 -13 -1 -13 5 0 10 -8 11 -17 5 -51 10 -67
21 -71 7 -2 0 -17 -19 -38 -16 -19 -30 -40 -31 -47 -5 -55 -3 -75 8 -92 21
-31 16 -37 -27 -33 -22 2 -40 1 -40 -2 0 -3 -56 -4 -125 -2 -87 2 -125 0 -125
-8 0 -6 4 -8 10 -5 6 3 7 -1 4 -9 -3 -9 -2 -16 2 -17 5 0 17 -2 27 -4 9 -2 17
1 17 6 0 5 65 9 148 8 94 -1 135 -4 114 -9 -58 -14 -47 -19 27 -13 54 4 71 3
71 -7 0 -10 3 -10 15 0 8 6 19 9 25 5 14 -9 62 3 56 13 -2 4 4 8 15 8 23 0 24
-4 1 -29 -16 -19 -16 -20 6 -8 14 8 22 8 22 1 0 -6 32 -10 80 -10 56 0 88 -5
104 -16 21 -13 63 -15 293 -12 188 2 274 7 288 15 24 15 56 14 -301 13 l-292
-1 -6 23 c-3 13 -6 27 -6 32 0 15 256 0 289 -17 25 -13 31 -13 35 -1 3 8 2 14
-2 14 -4 0 -7 29 -7 65 0 36 4 65 8 65 65 0 77 -1 72 -10 -7 -11 8 -14 18 -3
4 3 -1 12 -11 19 -15 11 -7 13 54 14 58 0 73 -3 78 -16 7 -19 -2 -33 -12 -19
-10 14 -93 14 -89 1 4 -13 204 -20 211 -7 3 4 -6 6 -19 3 -34 -6 -31 4 5 16
16 6 29 8 29 4 -5 -33 3 -52 22 -52 11 0 17 -5 14 -10 -4 -6 -10 -8 -15 -5
-10 6 -20 -7 -25 -35 -3 -17 -1 -18 15 -7 16 10 23 8 37 -7 17 -18 17 -19 1
-13 -22 8 -23 -6 -2 -27 14 -15 14 -16 -6 -16 -14 0 -20 5 -18 17 4 21 -27 29
-48 12 -25 -21 16 -39 86 -38 56 2 60 3 55 23 -5 20 -4 19 6 -2 9 -16 21 -22
45 -22 18 0 36 -4 39 -10 7 -11 193 -14 219 -4 38 14 9 19 -103 16 l-118 -4
-12 33 c-6 17 -11 34 -11 35 0 6 121 3 183 -5 33 -4 62 -13 68 -22 6 -10 9 -1
9 28 l0 41 -52 4 c-29 2 -61 8 -71 12 -13 6 -16 5 -11 -7 3 -8 1 -18 -5 -22
-7 -4 -11 5 -11 24 0 20 5 30 13 28 8 -1 13 15 15 51 4 70 17 66 17 -5 0 -54
2 -58 25 -62 24 -3 24 -2 7 16 -12 15 -17 37 -17 85 0 60 -2 66 -22 72 -13 3
-27 6 -31 6 -5 0 -5 -34 -2 -76 6 -56 5 -75 -4 -70 -6 4 -11 28 -11 53 0 26
-3 44 -6 40 -4 -3 -6 -27 -6 -53 1 -34 -2 -45 -12 -41 -7 3 -19 1 -27 -4 -10
-6 -7 -9 14 -9 23 0 27 -4 27 -28 0 -25 -4 -29 -30 -29 -16 0 -31 5 -31 11 -1
6 -2 23 -3 38 -3 42 -16 46 -16 4 0 -35 -1 -36 -22 -24 -13 7 -26 11 -30 10
-4 -1 -5 5 -2 12 3 9 -6 22 -22 32 -15 10 -35 31 -45 48 -16 27 -16 31 -1 55
9 14 19 28 22 31 4 3 9 13 13 23 3 9 13 17 22 17 8 0 15 5 15 10 0 6 9 10 20
10 15 0 20 -7 21 -27 5 -135 7 -153 17 -153 4 0 6 31 4 69 -3 64 -2 69 20 74
35 10 38 9 48 -15 9 -23 9 -23 9 -1 1 12 7 24 14 26 10 4 10 6 0 6 -9 1 -13
17 -13 45 0 25 -4 48 -10 51 -6 4 -10 -13 -10 -44 0 -50 0 -51 -31 -51 -29 0
-30 2 -27 37 2 29 10 42 34 58 43 28 100 106 141 193 27 57 37 71 47 63 11 -9
13 6 14 76 1 64 -1 82 -8 65 -5 -12 -8 -40 -6 -62 3 -27 1 -38 -7 -33 -6 4 -8
0 -4 -10 8 -22 -6 -22 -85 3 -34 11 -65 20 -68 20 -10 -1 35 -24 50 -27 8 -1
20 -9 27 -18 6 -10 16 -14 21 -11 5 3 12 -3 15 -14 3 -13 0 -20 -9 -20 -8 0
-11 -6 -8 -15 4 -8 1 -15 -6 -15 -6 0 -9 -3 -6 -8 2 -4 -2 -16 -10 -27 -11
-15 -17 -16 -27 -6 -6 6 -13 16 -13 21 -1 6 -2 14 -3 19 -2 18 -27 19 -27 1 0
-11 5 -16 15 -12 9 3 12 1 7 -6 -3 -6 -2 -13 4 -17 6 -4 7 -12 3 -18 -4 -7 -6
-22 -4 -34 1 -13 -1 -23 -6 -23 -5 0 -44 -34 -87 -75 -43 -41 -82 -75 -86 -75
-3 0 -13 -11 -20 -25 -10 -18 -16 -22 -22 -13 -13 21 -9 31 27 72 19 22 33 42
30 44 -8 8 -35 -20 -29 -29 3 -5 -2 -9 -10 -9 -8 0 -20 -8 -25 -18 -5 -10 -19
-18 -31 -19 -12 -1 -30 -9 -39 -17 -23 -21 -55 -21 -47 -1 11 29 -15 14 -35
-20 -17 -28 -27 -35 -52 -35 l-32 -1 33 -14 c18 -8 31 -19 27 -25 -3 -6 0 -7
9 -4 9 3 16 2 16 -3 0 -4 16 -17 35 -27 27 -15 38 -17 47 -8 17 17 34 15 53
-5 16 -16 16 -17 -6 -25 -13 -5 -26 -5 -32 1 -5 5 -33 7 -62 4 -49 -5 -55 -3
-90 28 -20 19 -43 37 -50 41 -18 11 -27 55 -16 76 13 25 125 82 160 82 21 0
37 10 60 38 17 20 37 44 45 54 8 9 12 19 9 22 -4 3 -1 6 5 6 7 0 12 7 12 16 0
8 4 12 10 9 6 -3 7 1 4 9 -7 18 -24 12 -24 -9 0 -7 -7 -16 -16 -19 -8 -3 -12
-10 -9 -16 3 -5 1 -10 -4 -10 -6 0 -11 -6 -11 -13 0 -7 -14 -28 -31 -47 -27
-30 -32 -32 -41 -17 -5 10 -7 21 -4 26 3 5 -1 12 -10 15 -26 10 -27 7 -10 -19
16 -24 16 -25 -4 -25 -14 0 -20 7 -21 23 -1 22 -1 22 -8 -2 -3 -13 -16 -28
-29 -32 -32 -12 -28 11 8 47 16 16 30 35 30 43 0 9 8 11 24 7 30 -7 113 31 98
46 -7 7 -20 7 -43 -1 -29 -10 -34 -8 -62 18 -16 17 -40 47 -53 68 l-23 38 1
-42 c1 -23 4 -40 8 -38 8 5 30 -39 30 -60 0 -21 -37 -19 -49 3 -11 21 -20 166
-9 149 4 -7 8 -8 8 -1 0 5 -4 14 -9 20 -5 5 -25 73 -44 150 -40 161 -84 263
-122 284 -30 16 -44 58 -24 71 23 14 34 5 37 -32 3 -34 5 -36 70 -56 109 -34
186 -64 206 -82 10 -9 31 -41 47 -71 l28 -55 1 43 c0 23 5 42 10 42 6 0 10
-20 10 -44 0 -24 3 -53 6 -63 5 -17 5 -17 -9 0 -8 9 -17 17 -20 17 -11 0 5
-63 23 -93 16 -26 18 -26 23 -8 3 11 0 22 -6 24 -6 2 -8 11 -4 20 5 14 20 17
78 17 65 0 70 -1 58 -17 -8 -9 -12 -17 -10 -17 2 -1 -1 -17 -8 -37 -6 -20 -10
-43 -9 -50 2 -8 -5 -13 -16 -12 -13 1 -15 -2 -7 -10 7 -7 16 -6 29 6 12 11 26
15 38 11 16 -6 16 -5 -3 12 l-22 19 30 100 c33 114 35 131 25 163 -4 13 -3 22
3 22 5 0 12 -8 14 -17 3 -11 5 -7 6 10 1 18 -4 27 -14 27 -10 0 -15 10 -15 33
0 17 -3 56 -6 85 l-7 52 107 0 c99 0 135 10 84 24 -25 6 -107 7 -123 0z m-683
-64 c6 0 8 -9 5 -19 -3 -13 4 -28 20 -43 14 -13 29 -32 35 -43 7 -13 -2 -8
-24 13 -31 29 -36 31 -48 17 -11 -13 -15 -13 -21 -3 -5 7 -9 20 -9 28 0 12 2
13 9 1 7 -11 11 -9 21 9 6 12 9 24 6 28 -3 3 -6 1 -6 -5 0 -5 -7 -10 -15 -10
-18 0 -18 -1 -3 33 10 21 14 24 16 11 2 -9 8 -17 14 -17z m133 -26 c-4 -45 -8
-48 -34 -34 -14 7 -21 21 -21 40 0 26 4 30 29 30 27 0 29 -2 26 -36z m51 -519
c-3 -8 -2 -15 3 -15 4 0 7 -12 7 -27 -1 -16 2 -36 7 -47 6 -13 6 -16 -2 -12
-6 4 -11 2 -11 -3 0 -6 5 -11 10 -11 6 0 10 -7 10 -16 0 -9 9 -18 19 -21 29
-7 32 -28 10 -55 -12 -13 -19 -32 -16 -44 4 -25 -33 -52 -54 -39 -8 5 -10 4
-5 -4 4 -6 3 -17 -2 -24 -14 -17 -25 -90 -12 -82 6 3 7 -1 4 -9 -4 -9 1 -18
10 -22 9 -3 13 -10 10 -15 -3 -5 1 -9 8 -10 11 -1 -12 -8 -74 -24 -10 -2 -20
0 -23 5 -8 14 -51 -12 -68 -42 -9 -15 -12 -30 -8 -33 5 -2 11 -16 13 -30 5
-21 1 -25 -21 -26 -14 -1 -30 -1 -35 0 -10 2 -159 11 -183 11 -68 0 -143 12
-137 21 3 5 -1 6 -9 3 -9 -3 -16 3 -20 15 -3 12 -1 18 4 15 6 -3 7 5 2 23 -4
15 -7 40 -7 56 1 17 -4 27 -13 27 -8 0 -21 7 -29 15 -14 13 -12 15 15 15 17 0
31 5 31 10 0 6 -14 10 -31 10 -28 0 -30 2 -25 32 3 17 16 40 31 52 14 12 27
31 28 43 0 12 5 19 9 17 4 -3 8 -2 9 3 0 4 2 29 4 55 4 59 21 95 23 48 1 -38
12 -54 13 -19 1 13 1 29 0 35 -2 16 30 27 42 15 5 -5 16 -7 23 -4 8 3 14 1 14
-3 0 -5 23 -9 50 -9 28 0 50 4 50 9 0 5 2 7 6 4 3 -3 26 1 52 9 26 8 54 16 62
18 8 1 28 7 44 14 16 6 31 9 34 7 2 -3 16 3 30 14 13 11 28 18 32 15 4 -2 18
7 30 20 26 28 45 33 36 10z m-1003 -44 c36 -1 56 -5 52 -11 -7 -11 -113 -14
-139 -4 -21 8 -11 23 12 19 9 -2 43 -4 75 -4z m147 -11 c0 -5 -12 -32 -27 -60
l-28 -50 -98 0 c-54 0 -107 -5 -118 -10 -24 -13 -24 -6 2 47 26 54 32 57 67
39 16 -8 34 -11 42 -6 8 4 34 11 58 15 23 4 42 11 42 15 0 8 21 16 48 19 6 0
12 -3 12 -9z m110 -160 c0 -5 7 -10 15 -10 8 0 15 -5 15 -11 0 -5 5 -7 10 -4
6 4 25 -8 43 -26 18 -17 26 -29 20 -25 -15 9 -18 -20 -3 -29 6 -3 10 -16 10
-27 l0 -21 -23 21 c-13 12 -26 22 -30 22 -15 0 -6 -33 13 -48 11 -10 35 -43
54 -74 28 -48 33 -64 29 -98 -3 -22 -13 -45 -22 -52 -14 -11 -14 -11 -3 4 8 9
9 19 4 22 -10 6 -24 -29 -15 -37 2 -3 39 -3 82 0 43 3 81 2 84 -3 3 -5 -7 -9
-21 -8 -15 0 -58 -3 -97 -6 -87 -9 -101 2 -80 60 12 34 12 40 -3 52 -11 9 -14
10 -8 1 4 -7 2 -13 -3 -13 -14 0 -14 17 -1 25 19 12 10 25 -16 25 -25 0 -26
-2 -20 -37 3 -21 6 -44 6 -50 0 -7 7 -13 15 -13 8 0 15 -4 15 -10 0 -5 -4 -10
-10 -10 -6 0 -6 -10 1 -27 13 -35 -9 -51 -33 -23 -11 14 -28 20 -56 20 -40 0
-40 0 -58 57 -13 40 -15 58 -7 60 7 3 10 10 7 18 -4 9 9 21 36 35 35 18 39 23
27 33 -41 34 -61 165 -30 199 17 19 53 25 53 8z m1002 -130 c5 -52 -18 -100
-49 -100 -7 0 -13 -4 -13 -10 0 -19 -20 -10 -58 25 -33 31 -35 34 -15 35 22 0
48 -32 36 -44 -3 -3 1 -6 11 -6 9 0 15 4 12 9 -3 5 1 11 9 15 8 3 15 10 15 16
0 7 -6 8 -19 1 -14 -8 -22 -7 -31 4 -10 12 -9 16 3 21 8 3 21 5 28 3 26 -3 40
1 35 10 -4 5 0 12 6 14 10 4 9 8 -2 16 -12 8 -11 10 8 8 12 0 23 -8 24 -17z
m46 -198 c12 -2 22 -8 22 -13 0 -22 -94 2 -104 27 -3 9 -1 12 4 9 6 -3 10 -2
10 4 0 20 35 17 40 -4 3 -11 16 -21 28 -23z m31 -42 c-15 -8 -79 -2 -79 9 0 3
21 4 47 2 29 -2 41 -6 32 -11z m41 -28 c0 -9 -2 -10 -65 -16 -22 -3 -29 -2
-15 1 14 2 29 9 35 14 11 11 45 12 45 1z"/>
<path d="M732 657 c-2 -32 0 -38 8 -25 6 9 9 26 7 37 -6 37 -13 31 -15 -12z"/>
<path d="M490 518 c0 -7 8 -35 18 -61 16 -42 20 -46 32 -33 10 13 10 16 -4 16
-14 0 -15 4 -6 21 10 17 8 21 -10 26 -12 3 -19 11 -16 19 3 7 1 16 -4 19 -6 4
-10 0 -10 -7z"/>
<path d="M832 1613 c-6 -2 -9 -10 -5 -16 4 -6 0 -8 -9 -5 -9 4 -15 0 -15 -8 0
-9 6 -13 16 -9 10 4 7 -2 -6 -15 -28 -25 -28 -25 -3 -27 11 -1 18 2 15 8 -4 5
-1 9 5 9 6 0 10 10 8 23 -3 20 2 23 47 27 35 4 45 7 32 13 -21 8 -65 8 -85 0z"/>
<path d="M740 1580 c0 -11 -1 -23 -2 -27 -1 -5 6 -9 15 -11 22 -4 24 43 2 52
-10 4 -15 -1 -15 -14z"/>
<path d="M167 1546 c-5 -13 -15 -16 -37 -12 -16 2 -30 1 -30 -4 0 -11 38 -20
88 -20 70 0 47 -20 -25 -22 l-68 -2 75 -6 c41 -4 59 -7 40 -8 -55 -3 -70 -20
-16 -18 25 0 46 4 47 9 8 44 2 66 -18 70 -12 2 -24 -1 -27 -7 -2 -6 -8 0 -13
13 -8 21 -11 22 -16 7z"/>
<path d="M20 1391 c-22 -6 -23 -8 -7 -14 30 -11 54 -8 54 8 0 16 -8 17 -47 6z"/>
<path d="M180 1371 c-6 -12 -21 -21 -33 -21 -16 0 -18 3 -9 9 10 6 7 10 -13
13 -17 4 -28 1 -32 -8 -3 -8 -8 -12 -12 -10 -3 2 -15 -2 -26 -10 -17 -13 -16
-14 21 -14 72 0 113 11 120 32 8 28 -2 34 -16 9z"/>
<path d="M230 1315 c-7 -8 -29 -15 -49 -16 -20 -1 -47 -5 -61 -9 -16 -5 -2 -6
35 -3 33 3 65 10 72 15 6 5 33 13 60 18 l48 8 -46 1 c-30 1 -51 -4 -59 -14z"/>
<path d="M650 1314 c0 -16 55 -97 76 -114 18 -14 18 -14 2 6 -10 11 -18 23
-18 27 0 6 -45 75 -56 86 -2 2 -4 0 -4 -5z"/>
<path d="M0 1301 c0 -5 20 -9 44 -8 24 1 42 5 39 9 -6 11 -83 10 -83 -1z"/>
<path d="M1887 1283 c-13 -12 -7 -45 13 -70 20 -25 20 -25 20 -4 0 12 -4 20
-9 16 -5 -3 -12 -1 -16 5 -3 5 1 10 9 10 9 0 16 7 16 16 0 14 -2 15 -17 3 -15
-13 -16 -12 -11 9 6 23 5 26 -5 15z"/>
<path d="M23 1176 c-14 -6 -23 -20 -23 -33 0 -30 8 -29 20 2 8 20 17 25 47 26
30 0 34 2 18 9 -25 11 -34 10 -62 -4z"/>
<path d="M876 1181 c-8 -12 18 -21 56 -21 36 0 34 7 -2 12 -14 2 -30 7 -37 11
-6 4 -14 3 -17 -2z"/>
<path d="M1361 1143 c-12 -16 -25 -33 -31 -40 -5 -7 -10 -18 -10 -25 0 -16 39
32 40 48 0 6 10 19 23 27 12 9 17 16 10 16 -6 1 -21 -11 -32 -26z"/>
<path d="M80 1142 c0 -10 45 -21 109 -27 38 -4 31 11 -9 18 -14 3 -42 8 -62
12 -24 4 -38 3 -38 -3z"/>
<path d="M1496 1118 c-3 -13 -5 -45 -5 -73 2 -47 2 -45 10 20 8 71 6 93 -5 53z"/>
<path d="M1566 1113 c1 -16 2 -36 3 -45 0 -10 6 -18 11 -18 6 0 9 20 8 45 -2
25 -8 45 -13 45 -6 0 -10 -12 -9 -27z"/>
<path d="M557 1116 c-3 -7 9 -26 26 -43 43 -40 67 -53 42 -23 -35 42 -43 50
-54 50 -6 0 -8 7 -5 15 4 8 4 15 1 15 -3 0 -7 -6 -10 -14z"/>
<path d="M1420 1101 c0 -7 -5 -9 -11 -6 -5 4 -23 1 -40 -5 -22 -10 -29 -19
-28 -39 0 -24 1 -25 10 -6 12 24 48 49 57 41 3 -4 -4 -20 -16 -36 -14 -19 -17
-27 -8 -24 17 6 51 73 42 81 -3 4 -6 1 -6 -6z"/>
<path d="M1582 965 c-15 -32 -15 -35 -2 -35 6 0 10 9 10 20 0 11 7 20 16 20 8
0 12 5 9 10 -10 17 -21 11 -33 -15z"/>
<path d="M598 944 c-4 -3 13 -25 37 -49 25 -23 49 -53 55 -66 10 -22 10 -22 5
6 -6 31 -86 121 -97 109z"/>
<path d="M1867 932 c-5 -7 -5 -71 -1 -142 l7 -130 -29 -1 c-34 -1 -78 -16 -54
-20 25 -3 125 3 130 8 2 2 -2 8 -9 12 -9 6 -10 11 -2 15 6 4 11 14 11 23 0 13
-3 13 -15 3 -13 -11 -15 -4 -14 53 1 35 -2 74 -5 85 -5 15 -2 22 11 25 16 4
16 5 1 6 -12 1 -18 12 -20 39 -2 23 -6 32 -11 24z"/>
<path d="M0 826 c0 -24 78 -145 93 -146 5 0 6 4 3 9 -9 13 19 21 75 21 27 0
49 4 49 8 0 4 -25 7 -57 6 -60 -2 -68 3 -122 74 -20 27 -41 42 -41 28z"/>
<path d="M1 673 c0 -18 4 -33 10 -33 5 0 7 -4 4 -10 -3 -5 -1 -10 5 -10 6 0 8
-4 5 -10 -3 -5 -1 -10 4 -10 19 0 12 -18 -9 -25 -30 -10 -24 -31 12 -43 l33
-10 -29 -1 -29 -1 7 -70 c4 -45 2 -70 -4 -70 -5 0 -10 -13 -10 -30 l0 -30 96
0 c72 0 95 3 91 13 -4 13 -11 13 -65 3 -28 -6 -35 -3 -39 14 -5 20 -23 28 -23
10 0 -5 -9 -10 -20 -10 -18 0 -18 1 -2 29 9 16 21 27 27 23 5 -3 2 4 -7 15
-10 11 -18 34 -18 51 0 26 3 30 20 27 11 -2 18 0 15 6 -4 5 -1 9 4 9 6 0 11
-7 11 -16 0 -15 2 -15 25 0 13 9 39 16 57 16 21 0 28 3 20 9 -10 6 -9 11 4 22
12 9 15 10 10 2 -4 -7 -2 -13 3 -13 6 0 11 4 11 9 0 4 30 9 68 10 87 2 108 6
104 20 -1 6 9 16 23 21 31 12 32 21 3 17 -17 -1 -22 3 -23 23 0 17 -7 26 -25
31 -16 4 -19 7 -7 8 9 1 17 5 17 9 0 5 -10 8 -22 6 -13 -1 -39 -3 -58 -5 l-35
-2 40 -7 40 -7 -48 -2 c-27 0 -46 2 -44 7 3 4 -17 5 -44 4 -27 -2 -49 -8 -49
-14 0 -5 -4 -6 -10 -3 -10 6 -14 -6 -11 -37 3 -26 -14 -22 -27 7 -6 14 -19 25
-28 25 -13 0 -15 -7 -10 -35 6 -28 4 -35 -9 -35 -8 0 -16 10 -17 23 0 12 -2
27 -3 32 -2 6 -4 15 -5 20 -1 6 -2 13 -1 17 0 4 -6 5 -13 2 -8 -3 -16 2 -19
13 -3 10 -5 4 -6 -14z m374 -55 c-1 -13 -3 -26 -4 -30 0 -5 -19 -8 -42 -8 -22
0 -38 4 -34 9 3 5 1 12 -5 16 -5 3 -10 0 -10 -8 0 -15 -29 -27 -67 -27 -13 0
-48 -12 -79 -27 -41 -20 -58 -25 -61 -15 -3 6 -12 12 -21 12 -10 1 0 10 21 21
22 11 41 18 45 15 9 -10 32 15 32 35 0 11 9 21 23 24 23 5 187 12 198 8 4 -1
5 -13 4 -25z"/>
<path d="M1850 618 c-3 -24 -3 -51 0 -90 2 -24 4 -27 8 -13 5 20 5 20 13 0 8
-20 8 -20 8 0 0 28 -27 124 -29 103z"/>
<path d="M1156 435 c-2 -7 -2 -23 1 -35 5 -19 11 -21 58 -18 40 2 51 0 47 -10
-3 -9 2 -12 19 -8 13 3 54 8 91 11 37 4 71 11 74 17 4 6 3 9 -2 6 -5 -3 -14 0
-21 7 -10 10 -9 14 2 19 7 2 16 0 19 -7 2 -7 5 -5 5 5 1 22 -16 33 -32 20 -7
-6 -33 -12 -57 -14 -29 -2 -44 -7 -42 -15 3 -19 -63 -16 -82 3 -24 23 -73 35
-80 19z"/>
<path d="M335 310 c24 -11 169 -11 210 0 19 5 -20 8 -100 8 -81 0 -122 -3
-110 -8z"/>
</g>
</svg>
