<?xml version="1.0" encoding="UTF-8"?>
<svg xmlns="http://www.w3.org/2000/svg" xmlns:xlink="http://www.w3.org/1999/xlink" width="144px" height="144px" viewBox="0 0 144 144" version="1.1">
<g id="surface1">
<path style=" stroke:none;fill-rule:nonzero;fill:rgb(0%,0%,0%);fill-opacity:1;" d="M 133.125 22.199219 C 132.75 22.351562 130.050781 22.800781 127.125 23.175781 C 123.898438 23.550781 122.925781 23.851562 124.574219 23.925781 L 127.273438 24 L 127.425781 29.773438 C 127.5 32.925781 127.726562 35.773438 127.875 36.074219 C 128.25 36.601562 118.050781 37.800781 117.226562 37.273438 C 116.851562 37.050781 116.699219 34.199219 116.851562 30.898438 L 117.074219 24.824219 L 119.476562 24.523438 C 120.824219 24.375 118.949219 24.148438 115.351562 24.148438 C 109.949219 24 108.75 24.226562 108.75 25.125 C 108.75 25.875 109.273438 26.175781 110.476562 25.949219 C 111.375 25.726562 112.199219 25.574219 112.351562 25.425781 C 113.851562 24.226562 116.324219 26.175781 115.425781 27.898438 C 114.601562 29.476562 114.523438 30.675781 115.425781 29.398438 C 115.800781 28.726562 116.023438 30.375 115.949219 33.449219 L 115.875 38.476562 L 122.101562 38.324219 L 128.398438 38.175781 L 128.023438 42.523438 C 127.199219 51.148438 127.648438 50.550781 121.800781 51.074219 C 118.949219 51.375 116.550781 51.523438 116.550781 51.449219 C 116.023438 51.074219 116.101562 42.824219 116.625 41.773438 C 116.925781 41.023438 117.074219 40.351562 116.925781 40.273438 C 114.300781 38.699219 108.976562 36.75 107.175781 36.75 C 105.898438 36.75 103.425781 35.925781 101.550781 34.875 C 99.675781 33.824219 97.425781 32.851562 96.523438 32.699219 C 94.800781 32.476562 93.148438 29.023438 93.074219 25.648438 C 93 24.074219 91.5 23.175781 91.5 24.75 C 91.5 25.875 87.976562 25.648438 87.523438 24.523438 C 87.226562 23.773438 87.074219 23.773438 87.074219 24.523438 C 87 25.726562 81.976562 25.875 81.601562 24.675781 C 81.449219 24.226562 79.574219 24 76.875 24.226562 C 73.5 24.375 72.824219 24.601562 74.101562 25.050781 C 75.449219 25.574219 75.601562 25.875 74.925781 26.773438 C 74.175781 27.601562 74.25 27.75 75.074219 27.601562 C 75.675781 27.449219 76.425781 27 76.726562 26.625 C 77.023438 26.175781 77.101562 26.851562 76.800781 28.125 C 76.5 29.851562 76.574219 30.074219 77.175781 29.25 C 78.148438 27.824219 78.226562 28.875 77.324219 32.023438 C 76.875 33.675781 76.875 34.425781 77.398438 34.273438 C 77.851562 34.199219 78.300781 34.726562 78.375 35.398438 C 78.523438 36.148438 78.300781 36.75 77.925781 36.75 C 77.476562 36.75 77.398438 37.050781 77.625 37.5 C 77.851562 37.875 77.699219 38.25 77.25 38.25 C 76.726562 38.25 76.875 38.773438 77.550781 39.449219 C 79.050781 40.875 79.050781 41.773438 77.625 43.199219 C 77.023438 43.875 76.5 44.101562 76.5 43.800781 C 76.5 42.601562 74.925781 44.773438 74.625 46.351562 C 74.175781 48.976562 76.125 48.300781 77.925781 45.375 C 79.648438 42.375 80.773438 37.875 79.5 38.625 C 79.125 38.851562 78.75 38.550781 78.75 37.875 C 78.75 37.125 79.125 36.898438 79.648438 37.199219 C 80.25 37.574219 80.324219 37.351562 80.023438 36.449219 C 79.726562 35.773438 80.101562 34.574219 80.773438 33.824219 C 81.898438 32.398438 82.050781 32.476562 84 34.648438 C 87.148438 38.023438 87.300781 41.550781 84.449219 43.726562 C 83.925781 44.175781 84.148438 44.25 84.976562 43.949219 C 87.300781 43.199219 86.324219 44.773438 83.699219 46.050781 C 80.699219 47.476562 80.25 47.550781 80.25 46.5 C 80.25 46.050781 80.625 45.824219 81.148438 45.898438 C 81.675781 46.050781 82.050781 45.75 82.125 45.375 C 82.125 44.925781 82.425781 44.175781 82.800781 43.574219 C 83.25 42.898438 82.726562 43.050781 81.523438 43.949219 C 80.476562 44.699219 79.351562 46.273438 79.125 47.476562 C 78.824219 48.601562 78.300781 49.351562 77.925781 49.050781 C 77.550781 48.824219 77.25 49.125 77.25 49.726562 C 77.25 51.074219 75.226562 51.976562 74.625 50.925781 C 74.324219 50.550781 73.800781 50.398438 73.425781 50.625 C 73.050781 50.851562 72.976562 50.550781 73.199219 49.875 C 73.574219 49.050781 73.351562 48.824219 72.449219 49.199219 C 71.773438 49.425781 71.25 50.175781 71.25 50.773438 C 71.25 51.75 71.023438 51.75 70.125 51 C 69.148438 50.175781 69.148438 49.949219 70.273438 49.050781 C 71.476562 48.148438 71.398438 48.074219 69.523438 48.75 C 66.976562 49.648438 64.949219 49.648438 67.125 48.75 C 68.699219 48.148438 69.148438 45.523438 67.949219 43.648438 C 67.273438 42.523438 68.699219 40.5 70.125 40.5 C 70.574219 40.5 71.625 39.75 72.449219 38.925781 L 73.875 37.351562 L 71.324219 37.875 C 69.976562 38.175781 67.5 39 65.851562 39.75 L 62.925781 41.023438 L 65.175781 43.425781 L 67.425781 45.824219 L 65.925781 47.324219 C 63.824219 49.425781 62.25 48 62.25 44.175781 C 62.25 41.625 61.949219 41.175781 59.851562 40.273438 C 57.226562 39.148438 54.074219 36.226562 56.550781 37.199219 C 58.273438 37.875 58.050781 37.050781 55.574219 33.898438 C 54.375 32.398438 53.175781 30.074219 52.875 28.875 C 52.425781 27.226562 52.199219 27 51.976562 27.976562 C 51.75 28.726562 51.976562 30.300781 52.425781 31.574219 C 53.101562 33.601562 53.101562 33.675781 51.75 33 C 50.625 32.398438 50.25 31.425781 50.25 28.875 C 50.25 27 50.625 25.5 51 25.5 C 51.449219 25.5 51.75 25.125 51.75 24.75 C 51.75 24.300781 42.601562 24 25.875 24 C 4.050781 24 0 24.148438 0 25.050781 C 0 25.875 1.125 26.101562 4.5 26.175781 C 6.976562 26.175781 9.375 26.398438 9.898438 26.699219 C 10.351562 27 10.5 26.925781 10.273438 26.476562 C 9.75 25.648438 22.875 25.648438 23.699219 26.476562 C 24 26.773438 24.675781 26.625 25.273438 26.175781 C 25.949219 25.5 26.550781 25.574219 27.300781 26.175781 C 27.898438 26.699219 28.5 26.773438 28.726562 26.476562 C 29.023438 26.023438 44.550781 25.800781 47.398438 26.175781 C 47.625 26.25 47.851562 27.449219 47.851562 28.949219 C 47.851562 30.976562 47.25 32.175781 45.601562 33.75 C 44.398438 34.949219 43.425781 36.074219 43.425781 36.300781 C 43.726562 38.476562 43.351562 38.773438 39.824219 38.699219 C 37.800781 38.625 36.226562 38.851562 36.449219 39.074219 C 36.601562 39.375 34.648438 39.824219 32.023438 40.125 C 29.476562 40.425781 26.25 40.726562 24.976562 40.875 C 23.625 41.023438 22.5 40.875 22.5 40.5 C 22.5 40.125 21.976562 39.976562 21.375 40.199219 C 20.699219 40.5 20.175781 39.976562 19.800781 38.625 C 19.5 37.351562 18.976562 36.824219 18.226562 37.050781 C 17.625 37.273438 17.398438 37.125 17.625 36.75 C 18.226562 35.773438 12 35.773438 9.449219 36.75 C 8.25 37.199219 7.5 37.199219 7.5 36.75 C 7.5 36.375 6.898438 36.300781 6.226562 36.523438 C 5.175781 36.898438 5.175781 37.125 6.074219 37.351562 C 6.601562 37.574219 7.351562 38.023438 7.574219 38.476562 C 7.875 38.851562 8.625 38.851562 9.601562 38.324219 C 11.324219 37.425781 14.925781 37.199219 16.800781 37.949219 C 18.226562 38.476562 18.375 40.574219 17.023438 41.925781 C 16.273438 42.75 17.699219 42.824219 25.125 42.449219 C 45.300781 41.398438 47.699219 41.101562 49.574219 39.675781 L 51.375 38.324219 L 48.375 38.773438 C 46.726562 39 45.601562 38.925781 45.976562 38.625 C 46.273438 38.25 47.925781 37.726562 49.726562 37.425781 L 52.875 36.976562 L 48.898438 36.824219 C 45.300781 36.75 45 36.601562 46.050781 35.625 C 46.726562 34.949219 48.523438 34.5 50.625 34.5 C 53.550781 34.5 54.074219 34.726562 53.699219 35.699219 C 53.476562 36.300781 53.550781 36.675781 53.925781 36.449219 C 54.300781 36.226562 54.824219 36.75 55.050781 37.726562 C 55.273438 38.625 56.175781 40.5 57 41.851562 C 58.273438 43.875 58.800781 44.175781 59.625 43.5 C 60.449219 42.824219 60.824219 43.199219 61.425781 45.449219 C 62.625 49.726562 65.699219 52.5 69.148438 52.5 C 70.949219 52.5 71.925781 52.800781 71.625 53.25 C 71.324219 53.699219 72.523438 54 74.773438 54 C 77.773438 54 78.523438 53.699219 79.125 52.351562 C 79.574219 51.375 81.675781 49.273438 83.925781 47.625 L 87.898438 44.699219 L 87.601562 40.648438 C 87.300781 36.976562 87.300781 36.75 88.199219 38.398438 C 88.726562 39.449219 89.324219 41.550781 89.550781 43.199219 C 89.773438 44.773438 90.148438 46.800781 90.300781 47.625 C 90.523438 48.449219 91.199219 51.300781 91.800781 54 C 92.476562 56.699219 93.300781 59.925781 93.675781 61.273438 C 94.199219 63.226562 94.125 63.898438 92.925781 65.175781 C 87.824219 70.574219 64.5 76.425781 60.375 73.273438 C 59.550781 72.601562 59.175781 71.851562 59.476562 71.476562 C 59.851562 71.175781 60.449219 71.476562 60.824219 72.226562 C 61.273438 72.898438 62.175781 73.5 62.851562 73.425781 C 63.601562 73.425781 63.75 73.199219 63.226562 72.976562 C 62.699219 72.824219 62.25 72.226562 62.25 71.699219 C 62.25 71.175781 61.574219 70.125 60.75 69.375 C 59.851562 68.550781 59.398438 67.425781 59.625 66.449219 C 59.773438 65.550781 60.074219 62.851562 60.300781 60.375 C 60.523438 57.898438 60.976562 54 61.199219 51.75 C 61.574219 48.226562 61.425781 47.398438 60.148438 46.273438 C 58.648438 44.925781 58.648438 45 57.675781 53.925781 C 57 60.449219 56.476562 63 55.726562 63 C 54.523438 63 54.523438 63 55.875 66.226562 C 57.523438 70.125 57.300781 73.273438 55.199219 75.976562 C 54.148438 77.398438 53.324219 79.648438 53.175781 81.375 C 52.949219 84.898438 52.5 85.949219 51.75 84.824219 C 51.523438 84.300781 51.226562 84.976562 51.226562 86.25 C 51.226562 89.25 50.699219 89.699219 48.824219 87.824219 C 45.75 84.75 40.050781 82.5 35.476562 82.574219 C 33.074219 82.574219 31.574219 82.800781 32.101562 83.023438 C 32.550781 83.175781 33 83.699219 33 84.074219 C 33 84.449219 32.175781 84.300781 31.125 83.851562 C 28.949219 82.875 28.949219 82.949219 33.148438 70.648438 C 34.726562 66 36 61.574219 36 60.824219 C 36 60.074219 36.824219 58.050781 37.800781 56.175781 C 42.449219 47.324219 44.25 43.949219 44.25 43.875 C 44.25 43.875 43.050781 43.949219 41.625 44.101562 C 40.199219 44.25 39.226562 44.699219 39.449219 45.074219 C 39.675781 45.449219 40.199219 45.601562 40.574219 45.375 C 40.949219 45.074219 41.25 45.226562 41.25 45.675781 C 41.25 46.425781 39.074219 46.726562 16.125 48.375 C 7.5 49.050781 0.300781 49.726562 0.148438 49.875 C -0.449219 50.476562 0.898438 51.75 1.574219 51.300781 C 2.023438 51.074219 4.949219 50.773438 8.101562 50.625 C 11.25 50.476562 13.949219 50.25 14.101562 50.175781 C 14.625 49.800781 16.351562 49.875 18.226562 50.324219 C 19.351562 50.625 20.101562 50.625 19.949219 50.324219 C 19.726562 50.023438 21.75 49.800781 24.300781 49.800781 C 26.925781 49.726562 31.125 49.5 33.675781 49.199219 C 36.523438 48.898438 38.25 48.976562 38.25 49.425781 C 38.25 51 35.023438 55.5 33.898438 55.5 C 32.773438 55.574219 32.851562 55.726562 34.050781 56.625 C 35.324219 57.601562 35.324219 57.75 34.273438 58.199219 C 33.601562 58.425781 33.226562 58.949219 33.449219 59.324219 C 33.675781 59.699219 32.25 60 30.226562 60 C 24.824219 60 18.75 60.898438 19.125 61.574219 C 19.351562 61.875 20.25 62.023438 21.148438 61.875 C 25.125 61.050781 34.050781 60.675781 33.148438 61.351562 C 32.625 61.726562 32.398438 62.550781 32.699219 63.226562 C 33.074219 64.351562 32.550781 64.5 28.199219 64.5 C 25.5 64.5 23.25 64.726562 23.25 65.101562 C 23.25 65.398438 24.824219 65.550781 26.851562 65.476562 C 29.324219 65.324219 29.925781 65.476562 28.875 65.925781 C 27.375 66.523438 27.375 66.523438 28.875 66.976562 C 29.699219 67.125 28.273438 67.273438 25.648438 67.125 C 22.648438 67.050781 21.148438 67.199219 21.601562 67.648438 C 21.976562 68.023438 24.601562 68.25 27.300781 68.101562 C 33.375 67.800781 33.523438 69.074219 27.601562 70.050781 C 22.648438 70.875 19.199219 70.199219 19.800781 68.625 C 20.023438 67.949219 19.800781 67.5 19.125 67.5 C 16.949219 67.5 17.476562 66.300781 19.726562 66.148438 C 22.875 65.925781 23.324219 65.25 20.398438 65.25 C 18.675781 65.25 18 64.875 18 64.050781 C 18 63.375 17.625 63 17.175781 63.148438 C 15.976562 63.523438 15.601562 67.5 16.726562 67.5 C 17.25 67.574219 16.199219 68.25 14.476562 69.148438 C 12.675781 69.976562 11.398438 70.949219 11.625 71.25 C 11.851562 71.625 10.726562 72.074219 9.226562 72.226562 L 6.375 72.523438 L 9.601562 72.601562 C 12.976562 72.75 13.5 73.726562 11.023438 75.300781 C 10.125 75.898438 9.375 75.824219 8.25 75.148438 C 6.449219 74.101562 0 73.949219 0 75 C 0 75.375 1.574219 75.75 3.601562 75.824219 C 5.550781 75.824219 7.800781 76.125 8.625 76.5 C 9.976562 77.023438 9.898438 77.101562 7.875 77.625 C 6.675781 77.925781 5.324219 78.226562 4.949219 78.300781 C 4.574219 78.375 5.476562 79.199219 6.976562 80.101562 C 8.550781 81 9.75 82.050781 9.75 82.425781 C 9.75 82.800781 10.648438 83.101562 11.773438 82.949219 C 12.976562 82.875 14.324219 83.101562 14.925781 83.550781 C 15.75 84.148438 15.898438 84.148438 15.523438 83.476562 C 14.550781 81.898438 26.324219 82.425781 27.75 84 C 28.351562 84.675781 29.476562 85.425781 30.226562 85.726562 C 31.949219 86.324219 33.074219 89.324219 32.101562 90.523438 C 31.648438 91.050781 31.648438 91.5 32.023438 91.5 C 32.398438 91.5 32.773438 92.101562 32.851562 92.773438 C 33.226562 96.601562 33.601562 97.800781 34.425781 98.101562 C 34.949219 98.25 34.425781 99.375 33 100.949219 C 31.800781 102.375 30.75 103.949219 30.675781 104.476562 C 30.300781 108.601562 30.449219 110.101562 31.273438 111.375 C 32.851562 113.699219 32.476562 114.148438 29.25 113.851562 C 27.601562 113.699219 26.25 113.773438 26.25 114 C 26.25 114.226562 22.050781 114.300781 16.875 114.148438 C 10.351562 114 7.5 114.148438 7.5 114.75 C 7.5 115.199219 7.800781 115.351562 8.25 115.125 C 8.699219 114.898438 8.773438 115.199219 8.550781 115.800781 C 8.324219 116.476562 8.398438 117 8.699219 117.074219 C 9.074219 117.074219 9.976562 117.226562 10.726562 117.375 C 11.398438 117.523438 12 117.300781 12 116.925781 C 12 116.550781 16.875 116.25 23.101562 116.324219 C 30.148438 116.398438 33.226562 116.625 31.648438 117 C 27.300781 118.050781 28.125 118.425781 33.675781 117.976562 C 37.726562 117.675781 39 117.75 39 118.5 C 39 119.25 39.226562 119.25 40.125 118.5 C 40.726562 118.050781 41.550781 117.824219 42 118.125 C 43.050781 118.800781 46.648438 117.898438 46.199219 117.148438 C 46.050781 116.851562 46.5 116.550781 47.324219 116.550781 C 49.050781 116.550781 49.125 116.851562 47.398438 118.726562 C 46.199219 120.148438 46.199219 120.226562 47.851562 119.324219 C 48.898438 118.726562 49.5 118.726562 49.5 119.25 C 49.5 119.699219 51.898438 120 55.5 120 C 59.699219 120 62.101562 120.375 63.300781 121.199219 C 64.875 122.175781 68.023438 122.324219 85.273438 122.101562 C 99.375 121.949219 105.824219 121.574219 106.875 120.976562 C 108.675781 119.851562 111.074219 119.925781 84.300781 120 L 62.398438 120.074219 L 61.949219 118.351562 C 61.726562 117.375 61.5 116.324219 61.5 115.949219 C 61.5 114.824219 80.699219 115.949219 83.175781 117.226562 C 85.050781 118.199219 85.5 118.199219 85.800781 117.300781 C 86.023438 116.699219 85.949219 116.25 85.648438 116.25 C 85.351562 116.25 85.125 114.074219 85.125 111.375 C 85.125 108.675781 85.425781 106.5 85.726562 106.5 C 90.601562 106.5 91.5 106.574219 91.125 107.25 C 90.601562 108.074219 91.726562 108.300781 92.476562 107.476562 C 92.773438 107.25 92.398438 106.574219 91.648438 106.050781 C 90.523438 105.226562 91.125 105.074219 95.699219 105 C 100.050781 105 101.175781 105.226562 101.550781 106.199219 C 102.074219 107.625 101.398438 108.675781 100.648438 107.625 C 99.898438 106.574219 93.675781 106.574219 93.976562 107.550781 C 94.273438 108.523438 109.273438 109.050781 109.800781 108.074219 C 110.023438 107.773438 109.351562 107.625 108.375 107.851562 C 105.824219 108.300781 106.050781 107.550781 108.75 106.648438 C 109.949219 106.199219 110.925781 106.050781 110.925781 106.351562 C 110.550781 108.824219 111.148438 110.25 112.574219 110.25 C 113.398438 110.25 113.851562 110.625 113.625 111 C 113.324219 111.449219 112.875 111.601562 112.5 111.375 C 111.75 110.925781 111 111.898438 110.625 114 C 110.398438 115.273438 110.550781 115.351562 111.75 114.523438 C 112.949219 113.773438 113.476562 113.925781 114.523438 115.050781 C 115.800781 116.398438 115.800781 116.476562 114.601562 116.023438 C 112.949219 115.425781 112.875 116.476562 114.449219 118.050781 C 115.5 119.175781 115.5 119.25 114 119.25 C 112.949219 119.25 112.5 118.875 112.648438 117.976562 C 112.949219 116.398438 110.625 115.800781 109.050781 117.074219 C 107.175781 118.648438 110.25 120 115.5 119.925781 C 119.699219 119.773438 120 119.699219 119.625 118.199219 C 119.25 116.699219 119.324219 116.773438 120.074219 118.351562 C 120.75 119.550781 121.648438 120 123.449219 120 C 124.800781 120 126.148438 120.300781 126.375 120.75 C 126.898438 121.574219 140.851562 121.800781 142.800781 121.050781 C 145.648438 120 143.476562 119.625 135.074219 119.851562 L 126.226562 120.148438 L 125.324219 117.675781 C 124.875 116.398438 124.5 115.125 124.5 115.050781 C 124.5 114.601562 133.574219 114.824219 138.226562 115.425781 C 140.699219 115.726562 142.875 116.398438 143.324219 117.074219 C 143.773438 117.824219 144 117.148438 144 114.976562 L 144 111.898438 L 140.101562 111.601562 C 137.925781 111.449219 135.523438 111 134.773438 110.699219 C 133.800781 110.25 133.574219 110.324219 133.949219 111.226562 C 134.175781 111.824219 134.023438 112.574219 133.574219 112.875 C 133.050781 113.175781 132.75 112.5 132.75 111.074219 C 132.75 109.574219 133.125 108.824219 133.726562 108.976562 C 134.324219 109.050781 134.699219 107.851562 134.851562 105.148438 C 135.148438 99.898438 136.125 100.199219 136.125 105.523438 C 136.125 109.574219 136.273438 109.875 138 110.175781 C 139.800781 110.398438 139.800781 110.324219 138.523438 108.976562 C 137.625 107.851562 137.25 106.199219 137.25 102.601562 C 137.25 98.101562 137.101562 97.648438 135.601562 97.199219 C 134.625 96.976562 133.574219 96.75 133.273438 96.75 C 132.898438 96.75 132.898438 99.300781 133.125 102.449219 C 133.574219 106.648438 133.5 108.074219 132.824219 107.699219 C 132.375 107.398438 132 105.601562 132 103.726562 C 132 101.773438 131.773438 100.425781 131.550781 100.726562 C 131.25 100.949219 131.101562 102.75 131.101562 104.699219 C 131.175781 107.25 130.949219 108.074219 130.199219 107.773438 C 129.675781 107.550781 128.773438 107.699219 128.175781 108.074219 C 127.425781 108.523438 127.648438 108.75 129.226562 108.75 C 130.949219 108.75 131.25 109.050781 131.25 110.851562 C 131.25 112.726562 130.949219 113.023438 129 113.023438 C 127.800781 113.023438 126.675781 112.648438 126.675781 112.199219 C 126.601562 111.75 126.523438 110.476562 126.449219 109.351562 C 126.226562 106.199219 125.25 105.898438 125.25 109.050781 C 125.25 111.675781 125.175781 111.75 123.601562 110.851562 C 122.625 110.324219 121.648438 110.023438 121.351562 110.101562 C 121.050781 110.175781 120.976562 109.726562 121.199219 109.199219 C 121.425781 108.523438 120.75 107.550781 119.550781 106.800781 C 118.425781 106.050781 116.925781 104.476562 116.175781 103.199219 C 114.976562 101.175781 114.976562 100.875 116.101562 99.074219 C 116.773438 98.023438 117.523438 96.976562 117.75 96.75 C 118.050781 96.523438 118.425781 95.773438 118.726562 95.023438 C 118.949219 94.351562 119.699219 93.75 120.375 93.75 C 120.976562 93.75 121.5 93.375 121.5 93 C 121.5 92.550781 122.175781 92.25 123 92.25 C 124.125 92.25 124.5 92.773438 124.574219 94.273438 C 124.949219 104.398438 125.101562 105.75 125.851562 105.75 C 126.148438 105.75 126.300781 103.425781 126.148438 100.574219 C 125.925781 95.773438 126 95.398438 127.648438 95.023438 C 130.273438 94.273438 130.5 94.351562 131.25 96.148438 C 131.925781 97.875 131.925781 97.875 131.925781 96.226562 C 132 95.324219 132.449219 94.425781 132.976562 94.273438 C 133.726562 93.976562 133.726562 93.824219 132.976562 93.824219 C 132.300781 93.75 132 92.550781 132 90.449219 C 132 88.574219 131.699219 86.851562 131.25 86.625 C 130.800781 86.324219 130.5 87.601562 130.5 89.925781 C 130.5 93.675781 130.5 93.75 128.175781 93.75 C 126 93.75 125.925781 93.601562 126.148438 90.976562 C 126.300781 88.800781 126.898438 87.824219 128.699219 86.625 C 131.925781 84.523438 136.199219 78.675781 139.273438 72.148438 C 141.300781 67.875 142.050781 66.824219 142.800781 67.425781 C 143.625 68.101562 143.773438 66.976562 143.851562 61.726562 C 143.925781 56.925781 143.773438 55.574219 143.25 56.851562 C 142.875 57.75 142.648438 59.851562 142.800781 61.5 C 143.023438 63.523438 142.875 64.351562 142.273438 63.976562 C 141.824219 63.675781 141.675781 63.976562 141.976562 64.726562 C 142.574219 66.375 141.523438 66.375 135.601562 64.5 C 133.050781 63.675781 130.726562 63 130.5 63 C 129.75 63.074219 133.125 64.800781 134.25 65.023438 C 134.851562 65.101562 135.75 65.699219 136.273438 66.375 C 136.726562 67.125 137.476562 67.425781 137.851562 67.199219 C 138.226562 66.976562 138.75 67.425781 138.976562 68.25 C 139.199219 69.226562 138.976562 69.75 138.300781 69.75 C 137.699219 69.75 137.476562 70.199219 137.699219 70.875 C 138 71.476562 137.773438 72 137.25 72 C 136.800781 72 136.574219 72.226562 136.800781 72.601562 C 136.949219 72.898438 136.648438 73.800781 136.050781 74.625 C 135.226562 75.75 134.773438 75.824219 134.023438 75.074219 C 133.574219 74.625 133.050781 73.875 133.050781 73.5 C 132.976562 73.050781 132.898438 72.449219 132.824219 72.074219 C 132.675781 70.726562 130.800781 70.648438 130.800781 72 C 130.800781 72.824219 131.175781 73.199219 131.925781 72.898438 C 132.601562 72.675781 132.824219 72.824219 132.449219 73.351562 C 132.226562 73.800781 132.300781 74.324219 132.75 74.625 C 133.199219 74.925781 133.273438 75.523438 132.976562 75.976562 C 132.675781 76.5 132.523438 77.625 132.675781 78.523438 C 132.75 79.5 132.601562 80.25 132.226562 80.25 C 131.851562 80.25 128.925781 82.800781 125.699219 85.875 C 122.476562 88.949219 119.550781 91.5 119.25 91.5 C 119.023438 91.5 118.273438 92.324219 117.75 93.375 C 117 94.726562 116.550781 95.023438 116.101562 94.351562 C 115.125 92.773438 115.425781 92.023438 118.125 88.949219 C 119.550781 87.300781 120.601562 85.800781 120.375 85.648438 C 119.773438 85.050781 117.75 87.148438 118.199219 87.824219 C 118.425781 88.199219 118.050781 88.5 117.449219 88.5 C 116.851562 88.5 115.949219 89.101562 115.574219 89.851562 C 115.199219 90.601562 114.148438 91.199219 113.25 91.273438 C 112.351562 91.351562 111 91.949219 110.324219 92.550781 C 108.601562 94.125 106.199219 94.125 106.800781 92.625 C 107.625 90.449219 105.675781 91.574219 104.175781 94.125 C 102.898438 96.226562 102.148438 96.75 100.273438 96.75 L 97.875 96.824219 L 100.351562 97.875 C 101.699219 98.476562 102.675781 99.300781 102.375 99.75 C 102.148438 100.199219 102.375 100.273438 103.050781 100.050781 C 103.726562 99.824219 104.25 99.898438 104.25 100.273438 C 104.25 100.574219 105.449219 101.550781 106.875 102.300781 C 108.898438 103.425781 109.726562 103.574219 110.398438 102.898438 C 111.675781 101.625 112.949219 101.773438 114.375 103.273438 C 115.574219 104.476562 115.574219 104.550781 113.925781 105.148438 C 112.949219 105.523438 111.976562 105.523438 111.523438 105.074219 C 111.148438 104.699219 109.050781 104.550781 106.875 104.773438 C 103.199219 105.148438 102.75 105 100.125 102.675781 C 98.625 101.25 96.898438 99.898438 96.375 99.601562 C 95.023438 98.773438 94.351562 95.476562 95.175781 93.898438 C 96.148438 92.023438 104.550781 87.75 107.175781 87.75 C 108.75 87.75 109.949219 87 111.675781 84.898438 C 112.949219 83.398438 114.449219 81.601562 115.050781 80.851562 C 115.648438 80.175781 115.949219 79.425781 115.726562 79.199219 C 115.425781 78.976562 115.648438 78.75 116.101562 78.75 C 116.625 78.75 117 78.226562 117 77.550781 C 117 76.949219 117.300781 76.648438 117.75 76.875 C 118.199219 77.101562 118.273438 76.800781 118.050781 76.199219 C 117.523438 74.851562 116.25 75.300781 116.25 76.875 C 116.25 77.398438 115.726562 78.074219 115.050781 78.300781 C 114.449219 78.523438 114.148438 79.050781 114.375 79.5 C 114.601562 79.875 114.449219 80.25 114.074219 80.25 C 113.625 80.25 113.25 80.699219 113.25 81.226562 C 113.25 81.75 112.199219 83.324219 110.925781 84.75 C 108.898438 87 108.523438 87.148438 107.851562 86.023438 C 107.476562 85.273438 107.324219 84.449219 107.550781 84.074219 C 107.773438 83.699219 107.476562 83.175781 106.800781 82.949219 C 104.851562 82.199219 104.773438 82.425781 106.050781 84.375 C 107.25 86.175781 107.25 86.25 105.75 86.25 C 104.699219 86.25 104.25 85.726562 104.175781 84.523438 C 104.101562 82.875 104.101562 82.875 103.574219 84.675781 C 103.351562 85.648438 102.375 86.773438 101.398438 87.074219 C 99 87.976562 99.300781 86.25 102 83.550781 C 103.199219 82.351562 104.25 80.925781 104.25 80.324219 C 104.25 79.648438 104.851562 79.5 106.050781 79.800781 C 108.300781 80.324219 114.523438 77.476562 113.398438 76.351562 C 112.875 75.824219 111.898438 75.824219 110.175781 76.425781 C 108 77.175781 107.625 77.023438 105.523438 75.074219 C 104.324219 73.800781 102.523438 71.550781 101.550781 69.976562 L 99.824219 67.125 L 99.898438 70.273438 C 99.976562 72 100.199219 73.273438 100.5 73.125 C 101.101562 72.75 102.75 76.050781 102.75 77.625 C 102.75 79.199219 99.976562 79.050781 99.074219 77.398438 C 98.25 75.824219 97.574219 64.949219 98.398438 66.226562 C 98.699219 66.75 99 66.824219 99 66.300781 C 99 65.925781 98.699219 65.25 98.324219 64.800781 C 97.949219 64.425781 96.449219 59.324219 95.023438 53.550781 C 92.023438 41.476562 88.726562 33.824219 85.875 32.25 C 83.625 31.050781 82.574219 27.898438 84.074219 26.925781 C 85.800781 25.875 86.625 26.550781 86.851562 29.324219 C 87.074219 31.875 87.226562 32.023438 92.101562 33.523438 C 100.273438 36.074219 106.050781 38.324219 107.550781 39.675781 C 108.300781 40.351562 109.875 42.75 111.074219 45 L 113.175781 49.125 L 113.25 45.898438 C 113.25 44.175781 113.625 42.75 114 42.75 C 114.449219 42.75 114.75 44.25 114.75 46.050781 C 114.75 47.851562 114.976562 50.023438 115.199219 50.773438 C 115.574219 52.050781 115.574219 52.050781 114.523438 50.773438 C 113.925781 50.101562 113.25 49.5 113.023438 49.5 C 112.199219 49.5 113.398438 54.226562 114.75 56.476562 C 115.949219 58.425781 116.101562 58.425781 116.476562 57.074219 C 116.699219 56.25 116.476562 55.425781 116.023438 55.273438 C 115.574219 55.125 115.425781 54.449219 115.726562 53.773438 C 116.101562 52.726562 117.226562 52.5 121.574219 52.5 C 126.449219 52.5 126.824219 52.574219 125.925781 53.773438 C 125.324219 54.449219 125.023438 55.050781 125.175781 55.050781 C 125.324219 55.125 125.101562 56.324219 124.574219 57.824219 C 124.125 59.324219 123.824219 61.050781 123.898438 61.574219 C 124.050781 62.175781 123.523438 62.550781 122.699219 62.476562 C 121.726562 62.398438 121.574219 62.625 122.175781 63.226562 C 122.699219 63.75 123.375 63.675781 124.351562 62.773438 C 125.25 61.949219 126.300781 61.648438 127.199219 61.949219 C 128.398438 62.398438 128.398438 62.324219 126.976562 61.050781 L 125.324219 59.625 L 127.574219 52.125 C 130.050781 43.574219 130.199219 42.300781 129.449219 39.898438 C 129.148438 38.925781 129.226562 38.25 129.675781 38.25 C 130.050781 38.25 130.574219 38.851562 130.726562 39.523438 C 130.949219 40.351562 131.101562 40.050781 131.175781 38.773438 C 131.25 37.425781 130.875 36.75 130.125 36.75 C 129.375 36.75 129 36 129 34.273438 C 129 33 128.773438 30.074219 128.550781 27.898438 L 128.023438 24 L 136.050781 24 C 143.476562 24 146.175781 23.25 142.351562 22.199219 C 140.476562 21.75 134.324219 21.675781 133.125 22.199219 Z M 81.898438 27 C 82.351562 27 82.5 27.675781 82.273438 28.425781 C 82.050781 29.398438 82.574219 30.523438 83.773438 31.648438 C 84.824219 32.625 85.949219 34.050781 86.398438 34.875 C 86.925781 35.851562 86.25 35.476562 84.601562 33.898438 C 82.273438 31.726562 81.898438 31.574219 81 32.625 C 80.175781 33.601562 79.875 33.601562 79.425781 32.851562 C 79.050781 32.324219 78.75 31.351562 78.75 30.75 C 78.75 29.851562 78.898438 29.773438 79.425781 30.675781 C 79.949219 31.5 80.25 31.351562 81 30 C 81.449219 29.101562 81.675781 28.199219 81.449219 27.898438 C 81.226562 27.675781 81 27.824219 81 28.273438 C 81 28.648438 80.476562 29.023438 79.875 29.023438 C 78.523438 29.023438 78.523438 29.101562 79.648438 26.550781 C 80.398438 24.976562 80.699219 24.75 80.851562 25.726562 C 81 26.398438 81.449219 27 81.898438 27 Z M 91.875 28.949219 C 91.574219 32.324219 91.273438 32.550781 89.324219 31.5 C 88.273438 30.976562 87.75 29.925781 87.75 28.5 C 87.75 26.550781 88.050781 26.25 89.925781 26.25 C 91.949219 26.25 92.101562 26.398438 91.875 28.949219 Z M 95.699219 67.875 C 95.476562 68.476562 95.550781 69 95.925781 69 C 96.226562 69 96.449219 69.898438 96.449219 71.023438 C 96.375 72.226562 96.601562 73.726562 96.976562 74.550781 C 97.425781 75.523438 97.425781 75.75 96.824219 75.449219 C 96.375 75.148438 96 75.300781 96 75.675781 C 96 76.125 96.375 76.5 96.75 76.5 C 97.199219 76.5 97.5 77.023438 97.5 77.699219 C 97.5 78.375 98.175781 79.050781 98.925781 79.273438 C 101.101562 79.800781 101.324219 81.375 99.675781 83.398438 C 98.773438 84.375 98.25 85.800781 98.476562 86.699219 C 98.773438 88.574219 96 90.601562 94.425781 89.625 C 93.824219 89.25 93.675781 89.324219 94.050781 89.925781 C 94.351562 90.375 94.273438 91.199219 93.898438 91.726562 C 92.851562 93 92.023438 98.476562 93 97.875 C 93.449219 97.648438 93.523438 97.949219 93.300781 98.550781 C 93 99.226562 93.375 99.898438 94.050781 100.199219 C 94.726562 100.425781 95.023438 100.949219 94.800781 101.324219 C 94.574219 101.699219 94.875 102 95.398438 102.074219 C 96.226562 102.148438 94.5 102.675781 89.851562 103.875 C 89.101562 104.023438 88.351562 103.875 88.125 103.5 C 87.523438 102.449219 84.300781 104.398438 83.023438 106.648438 C 82.351562 107.773438 82.125 108.898438 82.425781 109.125 C 82.800781 109.273438 83.25 110.324219 83.398438 111.375 C 83.773438 112.949219 83.476562 113.25 81.824219 113.324219 C 80.773438 113.398438 79.574219 113.398438 79.199219 113.324219 C 78.449219 113.175781 67.273438 112.5 65.476562 112.5 C 60.375 112.5 54.75 111.601562 55.199219 110.925781 C 55.425781 110.550781 55.125 110.476562 54.523438 110.699219 C 53.851562 110.925781 53.324219 110.476562 53.023438 109.574219 C 52.800781 108.675781 52.949219 108.226562 53.324219 108.449219 C 53.773438 108.675781 53.851562 108.074219 53.476562 106.726562 C 53.175781 105.601562 52.949219 103.726562 52.949219 102.523438 C 53.023438 101.25 52.648438 100.5 51.976562 100.5 C 51.375 100.5 50.398438 99.976562 49.800781 99.375 C 48.75 98.398438 48.898438 98.25 50.925781 98.25 C 52.199219 98.25 53.25 97.875 53.25 97.5 C 53.25 97.050781 52.199219 96.75 50.925781 96.75 C 48.824219 96.75 48.675781 96.601562 49.050781 94.351562 C 49.273438 93.074219 50.25 91.351562 51.375 90.449219 C 52.425781 89.550781 53.398438 88.125 53.476562 87.226562 C 53.476562 86.324219 53.851562 85.800781 54.148438 85.949219 C 54.449219 86.175781 54.75 86.101562 54.824219 85.726562 C 54.824219 85.425781 54.976562 83.550781 55.125 81.601562 C 55.425781 77.175781 56.699219 74.476562 56.851562 78 C 56.925781 80.851562 57.75 82.050781 57.824219 79.425781 C 57.898438 78.449219 57.898438 77.25 57.824219 76.800781 C 57.675781 75.601562 60.074219 74.773438 60.976562 75.675781 C 61.351562 76.050781 62.175781 76.199219 62.699219 75.976562 C 63.300781 75.75 63.75 75.898438 63.75 76.199219 C 63.75 76.574219 65.476562 76.875 67.5 76.875 C 69.601562 76.875 71.25 76.574219 71.25 76.199219 C 71.25 75.824219 71.398438 75.675781 71.699219 75.898438 C 71.925781 76.125 73.648438 75.824219 75.601562 75.226562 C 77.550781 74.625 79.648438 74.023438 80.25 73.875 C 80.851562 73.800781 82.351562 73.351562 83.550781 72.824219 C 84.75 72.375 85.875 72.148438 86.101562 72.300781 C 86.25 72.523438 87.300781 72.074219 88.351562 71.25 C 89.324219 70.425781 90.449219 69.898438 90.75 70.125 C 91.050781 70.273438 92.101562 69.601562 93 68.625 C 94.949219 66.523438 96.375 66.148438 95.699219 67.875 Z M 20.476562 71.175781 C 23.175781 71.25 24.675781 71.550781 24.375 72 C 23.851562 72.824219 15.898438 73.050781 13.949219 72.300781 C 12.375 71.699219 13.125 70.574219 14.851562 70.875 C 15.523438 71.023438 18.074219 71.175781 20.476562 71.175781 Z M 31.5 72 C 31.5 72.375 30.601562 74.398438 29.476562 76.5 L 27.375 80.25 L 20.023438 80.25 C 15.976562 80.25 12 80.625 11.175781 81 C 9.375 81.976562 9.375 81.449219 11.324219 77.476562 C 13.273438 73.425781 13.726562 73.199219 16.351562 74.550781 C 17.550781 75.148438 18.898438 75.375 19.5 75 C 20.101562 74.699219 22.050781 74.175781 23.851562 73.875 C 25.574219 73.574219 27 73.050781 27 72.75 C 27 72.148438 28.574219 71.550781 30.601562 71.324219 C 31.050781 71.324219 31.5 71.550781 31.5 72 Z M 39.75 84 C 39.75 84.375 40.273438 84.75 40.875 84.75 C 41.476562 84.75 42 85.125 42 85.574219 C 42 85.949219 42.375 86.101562 42.75 85.875 C 43.199219 85.574219 44.625 86.476562 45.976562 87.824219 C 47.324219 89.101562 47.925781 90 47.476562 89.699219 C 46.351562 89.023438 46.125 91.199219 47.25 91.875 C 47.699219 92.101562 48 93.074219 48 93.898438 L 48 95.476562 L 46.273438 93.898438 C 45.300781 93 44.324219 92.25 44.023438 92.25 C 42.898438 92.25 43.574219 94.726562 45 95.851562 C 45.824219 96.601562 47.625 99.074219 49.050781 101.398438 C 51.148438 105 51.523438 106.199219 51.226562 108.75 C 51 110.398438 50.25 112.125 49.574219 112.648438 C 48.523438 113.476562 48.523438 113.476562 49.351562 112.351562 C 49.949219 111.675781 50.023438 110.925781 49.648438 110.699219 C 48.898438 110.25 47.851562 112.875 48.523438 113.476562 C 48.675781 113.699219 51.449219 113.699219 54.675781 113.476562 C 57.898438 113.25 60.75 113.324219 60.976562 113.699219 C 61.199219 114.074219 60.449219 114.375 59.398438 114.300781 C 58.273438 114.300781 55.050781 114.523438 52.125 114.75 C 45.601562 115.425781 44.550781 114.601562 46.125 110.25 C 47.023438 107.699219 47.023438 107.25 45.898438 106.351562 C 45.074219 105.675781 44.851562 105.601562 45.300781 106.273438 C 45.601562 106.800781 45.449219 107.25 45.074219 107.25 C 44.023438 107.25 44.023438 105.976562 45 105.375 C 46.425781 104.476562 45.75 103.5 43.800781 103.5 C 41.925781 103.5 41.851562 103.648438 42.300781 106.273438 C 42.523438 107.851562 42.75 109.574219 42.75 110.023438 C 42.75 110.550781 43.273438 111 43.875 111 C 44.476562 111 45 111.300781 45 111.75 C 45 112.125 44.699219 112.5 44.25 112.5 C 43.800781 112.5 43.800781 113.25 44.324219 114.523438 C 45.300781 117.148438 43.648438 118.351562 41.851562 116.25 C 41.023438 115.199219 39.75 114.75 37.648438 114.75 C 34.648438 114.75 34.648438 114.75 33.300781 110.476562 C 32.324219 107.476562 32.175781 106.125 32.773438 105.976562 C 33.300781 105.75 33.523438 105.226562 33.300781 104.625 C 33 103.949219 33.976562 103.050781 36 102 C 38.625 100.648438 38.925781 100.273438 38.023438 99.523438 C 34.949219 96.976562 33.449219 87.148438 35.773438 84.601562 C 37.050781 83.175781 39.75 82.726562 39.75 84 Z M 114.898438 93.75 C 115.273438 97.648438 113.550781 101.25 111.226562 101.25 C 110.699219 101.25 110.25 101.550781 110.25 102 C 110.25 103.425781 108.75 102.75 105.898438 100.125 C 103.425781 97.800781 103.273438 97.574219 104.773438 97.5 C 106.425781 97.5 108.375 99.898438 107.476562 100.800781 C 107.25 101.023438 107.550781 101.25 108.300781 101.25 C 108.976562 101.25 109.425781 100.949219 109.199219 100.574219 C 108.976562 100.199219 109.273438 99.75 109.875 99.449219 C 110.476562 99.226562 111 98.699219 111 98.25 C 111 97.726562 110.550781 97.648438 109.574219 98.175781 C 108.523438 98.773438 107.925781 98.699219 107.25 97.875 C 106.5 96.976562 106.574219 96.675781 107.476562 96.300781 C 108.074219 96.074219 109.050781 95.925781 109.574219 96.074219 C 111.523438 96.300781 112.574219 96 112.199219 95.324219 C 111.898438 94.949219 112.199219 94.425781 112.648438 94.273438 C 113.398438 93.976562 113.324219 93.675781 112.5 93.074219 C 111.601562 92.476562 111.675781 92.324219 113.101562 92.476562 C 114 92.476562 114.824219 93.074219 114.898438 93.75 Z M 118.351562 108.601562 C 119.25 108.75 120 109.199219 120 109.574219 C 120 111.226562 112.949219 109.425781 112.199219 107.550781 C 111.976562 106.875 112.125 106.648438 112.5 106.875 C 112.949219 107.101562 113.25 107.023438 113.25 106.574219 C 113.25 105.074219 115.875 105.300781 116.25 106.875 C 116.476562 107.699219 117.449219 108.449219 118.351562 108.601562 Z M 120.675781 111.75 C 119.550781 112.351562 114.75 111.898438 114.75 111.074219 C 114.75 110.851562 116.324219 110.773438 118.273438 110.925781 C 120.449219 111.074219 121.351562 111.375 120.675781 111.75 Z M 123.75 113.851562 C 123.75 114.523438 123.601562 114.601562 118.875 115.050781 C 117.226562 115.273438 116.699219 115.199219 117.75 114.976562 C 118.800781 114.824219 119.925781 114.300781 120.375 113.925781 C 121.199219 113.101562 123.75 113.023438 123.75 113.851562 Z M 123.75 113.851562 "/>
<path style=" stroke:none;fill-rule:nonzero;fill:rgb(0%,0%,0%);fill-opacity:1;" d="M 54.898438 94.726562 C 54.75 97.125 54.898438 97.574219 55.5 96.601562 C 55.949219 95.925781 56.175781 94.648438 56.023438 93.824219 C 55.574219 91.050781 55.050781 91.5 54.898438 94.726562 Z M 54.898438 94.726562 "/>
<path style=" stroke:none;fill-rule:nonzero;fill:rgb(0%,0%,0%);fill-opacity:1;" d="M 36.75 105.148438 C 36.75 105.675781 37.351562 107.773438 38.101562 109.726562 C 39.300781 112.875 39.601562 113.175781 40.5 112.199219 C 41.25 111.226562 41.25 111 40.199219 111 C 39.148438 111 39.074219 110.699219 39.75 109.425781 C 40.5 108.148438 40.351562 107.851562 39 107.476562 C 38.101562 107.25 37.574219 106.648438 37.800781 106.050781 C 38.023438 105.523438 37.875 104.851562 37.5 104.625 C 37.050781 104.324219 36.75 104.625 36.75 105.148438 Z M 36.75 105.148438 "/>
<path style=" stroke:none;fill-rule:nonzero;fill:rgb(0%,0%,0%);fill-opacity:1;" d="M 62.398438 23.023438 C 61.949219 23.175781 61.726562 23.773438 62.023438 24.226562 C 62.324219 24.675781 62.023438 24.824219 61.351562 24.601562 C 60.675781 24.300781 60.226562 24.601562 60.226562 25.199219 C 60.226562 25.875 60.675781 26.175781 61.425781 25.875 C 62.175781 25.574219 61.949219 26.023438 60.976562 27 C 58.875 28.875 58.875 28.875 60.75 29.023438 C 61.574219 29.101562 62.101562 28.875 61.875 28.425781 C 61.574219 28.050781 61.800781 27.75 62.25 27.75 C 62.699219 27.75 63 27 62.851562 26.023438 C 62.625 24.523438 63 24.300781 66.375 24 C 69 23.699219 69.75 23.476562 68.773438 23.023438 C 67.199219 22.425781 63.898438 22.425781 62.398438 23.023438 Z M 62.398438 23.023438 "/>
<path style=" stroke:none;fill-rule:nonzero;fill:rgb(0%,0%,0%);fill-opacity:1;" d="M 55.5 25.5 C 55.5 26.324219 55.425781 27.226562 55.351562 27.523438 C 55.273438 27.898438 55.800781 28.199219 56.476562 28.351562 C 58.125 28.648438 58.273438 25.125 56.625 24.449219 C 55.875 24.148438 55.5 24.523438 55.5 25.5 Z M 55.5 25.5 "/>
<path style=" stroke:none;fill-rule:nonzero;fill:rgb(0%,0%,0%);fill-opacity:1;" d="M 12.523438 28.050781 C 12.148438 29.023438 11.398438 29.25 9.75 28.949219 C 8.550781 28.800781 7.5 28.875 7.5 29.25 C 7.5 30.074219 10.351562 30.75 14.101562 30.75 C 19.351562 30.75 17.625 32.25 12.226562 32.398438 L 7.125 32.550781 L 12.75 33 C 15.824219 33.300781 17.175781 33.523438 15.75 33.601562 C 11.625 33.824219 10.5 35.101562 14.550781 34.949219 C 16.425781 34.949219 18 34.648438 18.074219 34.273438 C 18.675781 30.976562 18.226562 29.324219 16.726562 29.023438 C 15.824219 28.875 14.925781 29.101562 14.699219 29.550781 C 14.550781 30 14.101562 29.550781 13.726562 28.574219 C 13.125 27 12.898438 26.925781 12.523438 28.050781 Z M 12.523438 28.050781 "/>
<path style=" stroke:none;fill-rule:nonzero;fill:rgb(0%,0%,0%);fill-opacity:1;" d="M 1.5 39.675781 C -0.148438 40.125 -0.226562 40.273438 0.976562 40.726562 C 3.226562 41.550781 5.023438 41.324219 5.023438 40.125 C 5.023438 38.925781 4.425781 38.851562 1.5 39.675781 Z M 1.5 39.675781 "/>
<path style=" stroke:none;fill-rule:nonzero;fill:rgb(0%,0%,0%);fill-opacity:1;" d="M 13.5 41.175781 C 13.050781 42.074219 11.925781 42.75 11.023438 42.75 C 9.824219 42.75 9.675781 42.523438 10.351562 42.074219 C 11.101562 41.625 10.875 41.324219 9.375 41.101562 C 8.101562 40.800781 7.273438 41.023438 6.976562 41.699219 C 6.75 42.300781 6.375 42.601562 6.074219 42.449219 C 5.851562 42.300781 4.949219 42.601562 4.125 43.199219 C 2.851562 44.175781 2.925781 44.25 5.699219 44.25 C 11.101562 44.25 14.175781 43.425781 14.699219 41.851562 C 15.300781 39.75 14.550781 39.300781 13.5 41.175781 Z M 13.5 41.175781 "/>
<path style=" stroke:none;fill-rule:nonzero;fill:rgb(0%,0%,0%);fill-opacity:1;" d="M 17.25 45.375 C 16.726562 45.976562 15.074219 46.5 13.574219 46.574219 C 12.074219 46.648438 10.050781 46.949219 9 47.25 C 7.800781 47.625 8.851562 47.699219 11.625 47.476562 C 14.101562 47.25 16.5 46.726562 17.023438 46.351562 C 17.476562 45.976562 19.5 45.375 21.523438 45 L 25.125 44.398438 L 21.675781 44.324219 C 19.425781 44.25 17.851562 44.625 17.25 45.375 Z M 17.25 45.375 "/>
<path style=" stroke:none;fill-rule:nonzero;fill:rgb(0%,0%,0%);fill-opacity:1;" d="M 48.75 45.449219 C 48.75 46.648438 52.875 52.726562 54.449219 54 C 55.800781 55.050781 55.800781 55.050781 54.601562 53.550781 C 53.851562 52.726562 53.25 51.824219 53.25 51.523438 C 53.25 51.074219 49.875 45.898438 49.050781 45.074219 C 48.898438 44.925781 48.75 45.074219 48.75 45.449219 Z M 48.75 45.449219 "/>
<path style=" stroke:none;fill-rule:nonzero;fill:rgb(0%,0%,0%);fill-opacity:1;" d="M 0 46.425781 C 0 46.800781 1.5 47.101562 3.300781 47.023438 C 5.101562 46.949219 6.449219 46.648438 6.226562 46.351562 C 5.773438 45.523438 0 45.601562 0 46.425781 Z M 0 46.425781 "/>
<path style=" stroke:none;fill-rule:nonzero;fill:rgb(0%,0%,0%);fill-opacity:1;" d="M 141.523438 47.773438 C 140.550781 48.675781 141 51.148438 142.5 53.023438 C 144 54.898438 144 54.898438 144 53.324219 C 144 52.425781 143.699219 51.824219 143.324219 52.125 C 142.949219 52.351562 142.425781 52.199219 142.125 51.75 C 141.898438 51.375 142.199219 51 142.800781 51 C 143.476562 51 144 50.476562 144 49.800781 C 144 48.75 143.851562 48.675781 142.726562 49.574219 C 141.601562 50.550781 141.523438 50.476562 141.898438 48.898438 C 142.351562 47.175781 142.273438 46.949219 141.523438 47.773438 Z M 141.523438 47.773438 "/>
<path style=" stroke:none;fill-rule:nonzero;fill:rgb(0%,0%,0%);fill-opacity:1;" d="M 1.726562 55.800781 C 0.675781 56.25 0 57.300781 0 58.273438 C 0 60.523438 0.601562 60.449219 1.5 58.125 C 2.101562 56.625 2.773438 56.25 5.023438 56.175781 C 7.273438 56.175781 7.574219 56.023438 6.375 55.5 C 4.5 54.675781 3.824219 54.75 1.726562 55.800781 Z M 1.726562 55.800781 "/>
<path style=" stroke:none;fill-rule:nonzero;fill:rgb(0%,0%,0%);fill-opacity:1;" d="M 65.699219 55.425781 C 65.101562 56.324219 67.050781 57 69.898438 57 C 72.601562 57 72.449219 56.476562 69.75 56.101562 C 68.699219 55.949219 67.5 55.574219 66.976562 55.273438 C 66.523438 54.976562 65.925781 55.050781 65.699219 55.425781 Z M 65.699219 55.425781 "/>
<path style=" stroke:none;fill-rule:nonzero;fill:rgb(0%,0%,0%);fill-opacity:1;" d="M 102.074219 58.273438 C 101.175781 59.476562 100.199219 60.75 99.75 61.273438 C 99.375 61.800781 99 62.625 99 63.148438 C 99 64.351562 101.925781 60.75 102 59.550781 C 102 59.101562 102.75 58.125 103.726562 57.523438 C 104.625 56.851562 105 56.324219 104.476562 56.324219 C 104.023438 56.25 102.898438 57.148438 102.074219 58.273438 Z M 102.074219 58.273438 "/>
<path style=" stroke:none;fill-rule:nonzero;fill:rgb(0%,0%,0%);fill-opacity:1;" d="M 6 58.351562 C 6 59.101562 9.375 59.925781 14.175781 60.375 C 17.023438 60.675781 16.5 59.550781 13.5 59.023438 C 12.449219 58.800781 10.351562 58.425781 8.851562 58.125 C 7.050781 57.824219 6 57.898438 6 58.351562 Z M 6 58.351562 "/>
<path style=" stroke:none;fill-rule:nonzero;fill:rgb(0%,0%,0%);fill-opacity:1;" d="M 112.199219 60.148438 C 111.976562 61.125 111.824219 63.523438 111.824219 65.625 C 111.976562 69.148438 111.976562 69 112.574219 64.125 C 113.175781 58.800781 113.023438 57.148438 112.199219 60.148438 Z M 112.199219 60.148438 "/>
<path style=" stroke:none;fill-rule:nonzero;fill:rgb(0%,0%,0%);fill-opacity:1;" d="M 117.449219 60.523438 C 117.523438 61.726562 117.601562 63.226562 117.675781 63.898438 C 117.675781 64.648438 118.125 65.25 118.5 65.25 C 118.949219 65.25 119.175781 63.75 119.101562 61.875 C 118.949219 60 118.5 58.5 118.125 58.5 C 117.675781 58.5 117.375 59.398438 117.449219 60.523438 Z M 117.449219 60.523438 "/>
<path style=" stroke:none;fill-rule:nonzero;fill:rgb(0%,0%,0%);fill-opacity:1;" d="M 41.773438 60.300781 C 41.550781 60.824219 42.449219 62.25 43.726562 63.523438 C 46.949219 66.523438 48.75 67.5 46.875 65.25 C 44.25 62.101562 43.648438 61.5 42.824219 61.5 C 42.375 61.5 42.226562 60.976562 42.449219 60.375 C 42.75 59.773438 42.75 59.25 42.523438 59.25 C 42.300781 59.25 42 59.699219 41.773438 60.300781 Z M 41.773438 60.300781 "/>
<path style=" stroke:none;fill-rule:nonzero;fill:rgb(0%,0%,0%);fill-opacity:1;" d="M 106.5 61.425781 C 106.5 61.949219 106.125 62.101562 105.675781 61.875 C 105.300781 61.574219 103.949219 61.800781 102.675781 62.25 C 101.023438 63 100.5 63.675781 100.574219 65.175781 C 100.574219 66.976562 100.648438 67.050781 101.324219 65.625 C 102.226562 63.824219 104.925781 61.949219 105.601562 62.550781 C 105.824219 62.851562 105.300781 64.050781 104.398438 65.25 C 103.351562 66.675781 103.125 67.273438 103.800781 67.050781 C 105.074219 66.601562 107.625 61.574219 106.949219 60.976562 C 106.726562 60.675781 106.5 60.898438 106.5 61.425781 Z M 106.5 61.425781 "/>
<path style=" stroke:none;fill-rule:nonzero;fill:rgb(0%,0%,0%);fill-opacity:1;" d="M 118.648438 71.625 C 117.523438 74.023438 117.523438 74.25 118.5 74.25 C 118.949219 74.25 119.25 73.574219 119.25 72.75 C 119.25 71.925781 119.773438 71.25 120.449219 71.25 C 121.050781 71.25 121.351562 70.875 121.125 70.5 C 120.375 69.226562 119.550781 69.675781 118.648438 71.625 Z M 118.648438 71.625 "/>
<path style=" stroke:none;fill-rule:nonzero;fill:rgb(0%,0%,0%);fill-opacity:1;" d="M 44.851562 73.199219 C 44.550781 73.425781 45.824219 75.074219 47.625 76.875 C 49.5 78.601562 51.300781 80.851562 51.75 81.824219 C 52.5 83.476562 52.5 83.476562 52.125 81.375 C 51.675781 79.050781 45.675781 72.300781 44.851562 73.199219 Z M 44.851562 73.199219 "/>
<path style=" stroke:none;fill-rule:nonzero;fill:rgb(0%,0%,0%);fill-opacity:1;" d="M 140.023438 74.101562 C 139.648438 74.625 139.648438 79.425781 139.949219 84.75 L 140.476562 94.5 L 138.300781 94.574219 C 135.75 94.648438 132.449219 95.773438 134.25 96.074219 C 136.125 96.300781 143.625 95.851562 144 95.476562 C 144.148438 95.324219 143.851562 94.875 143.324219 94.574219 C 142.648438 94.125 142.574219 93.75 143.175781 93.449219 C 143.625 93.148438 144 92.398438 144 91.726562 C 144 90.75 143.773438 90.75 142.875 91.5 C 141.898438 92.324219 141.75 91.800781 141.824219 87.523438 C 141.898438 84.898438 141.675781 81.976562 141.449219 81.148438 C 141.074219 80.023438 141.300781 79.5 142.273438 79.273438 C 143.476562 78.976562 143.476562 78.898438 142.351562 78.824219 C 141.449219 78.75 141 77.925781 140.851562 75.898438 C 140.699219 74.175781 140.398438 73.5 140.023438 74.101562 Z M 140.023438 74.101562 "/>
<path style=" stroke:none;fill-rule:nonzero;fill:rgb(0%,0%,0%);fill-opacity:1;" d="M 0 82.050781 C 0 83.851562 5.851562 92.925781 6.976562 93 C 7.351562 93 7.425781 92.699219 7.199219 92.324219 C 6.523438 91.351562 8.625 90.75 12.824219 90.75 C 14.851562 90.75 16.5 90.449219 16.5 90.148438 C 16.5 89.851562 14.625 89.625 12.226562 89.699219 C 7.726562 89.851562 7.125 89.476562 3.074219 84.148438 C 1.574219 82.125 0 81 0 82.050781 Z M 0 82.050781 "/>
<path style=" stroke:none;fill-rule:nonzero;fill:rgb(0%,0%,0%);fill-opacity:1;" d="M 0.0742188 93.523438 C 0.0742188 94.875 0.375 96 0.824219 96 C 1.199219 96 1.351562 96.300781 1.125 96.75 C 0.898438 97.125 1.050781 97.5 1.5 97.5 C 1.949219 97.5 2.101562 97.800781 1.875 98.25 C 1.648438 98.625 1.800781 99 2.175781 99 C 3.601562 99 3.074219 100.351562 1.5 100.875 C -0.75 101.625 -0.300781 103.199219 2.398438 104.101562 L 4.875 104.851562 L 0.523438 105 L 1.050781 110.25 C 1.351562 113.625 1.199219 115.5 0.75 115.5 C 0.375 115.5 0 116.476562 0 117.75 L 0 120 L 7.199219 120 C 12.601562 120 14.324219 119.773438 14.023438 119.023438 C 13.726562 118.050781 13.199219 118.050781 9.148438 118.800781 C 7.050781 119.25 6.523438 119.023438 6.226562 117.75 C 5.851562 116.25 4.5 115.648438 4.5 117 C 4.5 117.375 3.824219 117.75 3 117.75 C 1.648438 117.75 1.648438 117.675781 2.851562 115.574219 C 3.523438 114.375 4.425781 113.550781 4.875 113.851562 C 5.25 114.074219 5.023438 113.550781 4.351562 112.726562 C 3.601562 111.898438 3 110.175781 3 108.898438 C 3 106.949219 3.226562 106.648438 4.5 106.875 C 5.324219 107.023438 5.851562 106.875 5.625 106.425781 C 5.324219 106.050781 5.550781 105.75 5.925781 105.75 C 6.375 105.75 6.75 106.273438 6.75 106.949219 C 6.75 108.074219 6.898438 108.074219 8.625 106.949219 C 9.601562 106.273438 11.550781 105.75 12.898438 105.75 C 14.476562 105.75 15 105.523438 14.398438 105.074219 C 13.648438 104.625 13.726562 104.25 14.699219 103.425781 C 15.601562 102.75 15.824219 102.675781 15.449219 103.273438 C 15.148438 103.800781 15.300781 104.25 15.675781 104.25 C 16.125 104.25 16.5 103.949219 16.5 103.574219 C 16.5 103.273438 18.75 102.898438 21.601562 102.824219 C 28.125 102.675781 29.699219 102.375 29.398438 101.324219 C 29.324219 100.875 30.074219 100.125 31.125 99.75 C 33.449219 98.851562 33.523438 98.175781 31.351562 98.476562 C 30.074219 98.550781 29.699219 98.25 29.625 96.75 C 29.625 95.476562 29.101562 94.800781 27.75 94.425781 C 26.550781 94.125 26.324219 93.898438 27.226562 93.824219 C 27.898438 93.75 28.5 93.449219 28.5 93.148438 C 28.5 92.773438 27.75 92.550781 26.851562 92.699219 C 25.875 92.773438 23.925781 92.925781 22.5 93.074219 L 19.875 93.226562 L 25.875 94.273438 L 22.273438 94.425781 C 20.25 94.425781 18.824219 94.273438 18.976562 93.898438 C 19.199219 93.601562 17.699219 93.523438 15.675781 93.601562 C 13.648438 93.75 12 94.199219 12 94.648438 C 12 95.023438 11.699219 95.101562 11.25 94.875 C 10.5 94.425781 10.199219 95.324219 10.425781 97.648438 C 10.648438 99.601562 9.375 99.300781 8.398438 97.125 C 7.949219 96.074219 6.976562 95.25 6.300781 95.25 C 5.324219 95.25 5.175781 95.773438 5.550781 97.875 C 6 99.976562 5.851562 100.5 4.875 100.5 C 4.273438 100.5 3.675781 99.75 3.601562 98.773438 C 3.601562 97.875 3.449219 96.75 3.375 96.375 C 3.226562 95.925781 3.074219 95.25 3 94.875 C 2.925781 94.425781 2.851562 93.898438 2.925781 93.601562 C 2.925781 93.300781 2.476562 93.226562 1.949219 93.449219 C 1.351562 93.675781 0.75 93.300781 0.523438 92.476562 C 0.300781 91.726562 0.148438 92.175781 0.0742188 93.523438 Z M 28.125 97.648438 C 28.050781 98.625 27.898438 99.601562 27.824219 99.898438 C 27.824219 100.273438 26.398438 100.5 24.675781 100.5 C 23.023438 100.5 21.824219 100.199219 22.125 99.824219 C 22.351562 99.449219 22.199219 98.925781 21.75 98.625 C 21.375 98.398438 21 98.625 21 99.226562 C 21 100.351562 18.824219 101.25 15.976562 101.25 C 15 101.25 12.375 102.148438 10.050781 103.273438 C 6.976562 104.773438 5.699219 105.148438 5.476562 104.398438 C 5.25 103.949219 4.574219 103.5 3.898438 103.5 C 3.148438 103.425781 3.898438 102.75 5.476562 101.925781 C 7.125 101.101562 8.550781 100.574219 8.851562 100.800781 C 9.523438 101.550781 11.25 99.675781 11.25 98.175781 C 11.25 97.351562 11.925781 96.601562 12.976562 96.375 C 14.699219 96 27 95.476562 27.824219 95.773438 C 28.125 95.851562 28.199219 96.75 28.125 97.648438 Z M 28.125 97.648438 "/>
<path style=" stroke:none;fill-rule:nonzero;fill:rgb(0%,0%,0%);fill-opacity:1;" d="M 138.75 97.648438 C 138.523438 99.449219 138.523438 101.476562 138.75 104.398438 C 138.898438 106.199219 139.050781 106.425781 139.351562 105.375 C 139.726562 103.875 139.726562 103.875 140.324219 105.375 C 140.925781 106.875 140.925781 106.875 140.925781 105.375 C 140.925781 103.273438 138.898438 96.074219 138.75 97.648438 Z M 138.75 97.648438 "/>
<path style=" stroke:none;fill-rule:nonzero;fill:rgb(0%,0%,0%);fill-opacity:1;" d="M 86.699219 111.375 C 86.550781 111.898438 86.550781 113.101562 86.773438 114 C 87.148438 115.425781 87.601562 115.574219 91.125 115.351562 C 94.125 115.199219 94.949219 115.351562 94.648438 116.101562 C 94.425781 116.773438 94.800781 117 96.074219 116.699219 C 97.050781 116.476562 100.125 116.101562 102.898438 115.875 C 105.675781 115.574219 108.226562 115.050781 108.449219 114.601562 C 108.75 114.148438 108.675781 113.925781 108.300781 114.148438 C 107.925781 114.375 107.25 114.148438 106.726562 113.625 C 105.976562 112.875 106.050781 112.574219 106.875 112.199219 C 107.398438 112.050781 108.074219 112.199219 108.300781 112.726562 C 108.449219 113.25 108.675781 113.101562 108.675781 112.351562 C 108.75 110.699219 107.476562 109.875 106.273438 110.851562 C 105.75 111.300781 103.800781 111.75 102 111.898438 C 99.824219 112.050781 98.699219 112.425781 98.851562 113.023438 C 99.074219 114.449219 94.125 114.226562 92.699219 112.800781 C 90.898438 111.074219 87.226562 110.175781 86.699219 111.375 Z M 86.699219 111.375 "/>
<path style=" stroke:none;fill-rule:nonzero;fill:rgb(0%,0%,0%);fill-opacity:1;" d="M 25.125 120.75 C 26.925781 121.574219 37.800781 121.574219 40.875 120.75 C 42.300781 120.375 39.375 120.148438 33.375 120.148438 C 27.300781 120.148438 24.226562 120.375 25.125 120.75 Z M 25.125 120.75 "/>
</g>
</svg>
