<svg xmlns="http://www.w3.org/2000/svg" width="144" height="144"><path d="M133.125 22.2c-.375.152-3.074.6-6 .976-3.227.375-4.2.676-2.55.75l2.698.074.153 5.773c.074 3.153.3 6 .449 6.301.375.528-9.824 1.727-10.648 1.2-.375-.223-.528-3.075-.375-6.376l.222-6.074 2.403-.3c1.347-.149-.528-.376-4.125-.376-5.403-.148-6.602.079-6.602.977 0 .75.523 1.05 1.727.824.898-.222 1.722-.375 1.875-.523 1.5-1.2 3.972.75 3.074 2.472-.824 1.579-.903 2.778 0 1.5.375-.671.597.977.523 4.051l-.074 5.028 6.227-.153 6.296-.148-.375 4.347c-.824 8.625-.375 8.028-6.222 8.551-2.852.301-5.25.45-5.25.375-.528-.375-.45-8.625.074-9.676.3-.75.45-1.421.3-1.5-2.624-1.574-7.948-3.523-9.75-3.523-1.277 0-3.75-.824-5.624-1.875-1.875-1.05-4.125-2.023-5.028-2.176-1.722-.222-3.375-3.676-3.449-7.05C93 24.073 91.5 23.175 91.5 24.75c0 1.125-3.523.898-3.977-.227-.296-.75-.449-.75-.449 0-.074 1.204-5.097 1.352-5.472.153-.153-.45-2.028-.676-4.727-.45-3.375.149-4.05.376-2.773.825 1.347.523 1.5.824.824 1.722-.75.829-.676.977.148.829.602-.153 1.352-.602 1.653-.977.296-.45.375.227.074 1.5-.301 1.727-.227 1.95.375 1.125.972-1.426 1.05-.375.148 2.773-.449 1.653-.449 2.403.074 2.25.454-.074.903.454.977 1.125.148.75-.074 1.352-.45 1.352-.448 0-.527.3-.3.75.227.375.074.75-.375.75-.523 0-.375.523.3 1.2 1.5 1.425 1.5 2.323.075 3.75-.602.675-1.125.902-1.125.6 0-1.198-1.574.973-1.875 2.552-.45 2.625 1.5 1.949 3.3-.977 1.723-3 2.848-7.5 1.575-6.75-.375.227-.75-.074-.75-.75 0-.75.375-.977.898-.676.602.375.676.153.375-.75-.296-.676.079-1.875.75-2.625 1.125-1.426 1.278-1.347 3.227.824 3.148 3.375 3.3 6.903.45 9.079-.524.449-.302.523.527.222 2.324-.75 1.347.824-1.278 2.102-3 1.426-3.449 1.5-3.449.449 0-.45.375-.676.898-.602.528.153.903-.148.977-.523 0-.45.3-1.2.676-1.8.449-.677-.074-.524-1.278.374-1.046.75-2.171 2.324-2.398 3.528-.3 1.125-.824 1.875-1.2 1.574-.374-.227-.675.074-.675.676 0 1.347-2.023 2.25-2.625 1.199-.3-.375-.824-.528-1.2-.301-.374.227-.448-.074-.226-.75.375-.824.153-1.05-.75-.676-.676.227-1.199.977-1.199 1.574 0 .977-.227.977-1.125.227-.977-.824-.977-1.05.148-1.95 1.204-.902 1.125-.976-.75-.3-2.546.898-4.574.898-2.398 0 1.574-.602 2.023-3.227.824-5.102-.676-1.125.75-3.148 2.176-3.148.45 0 1.5-.75 2.324-1.574l1.426-1.574-2.55.523c-1.348.3-3.825 1.125-5.473 1.875l-2.926 1.273 2.25 2.403 2.25 2.398-1.5 1.5c-2.102 2.102-3.676.676-3.676-3.148 0-2.551-.3-3-2.398-3.903-2.625-1.125-5.778-4.046-3.301-3.074 1.722.676 1.5-.148-.977-3.3-1.199-1.5-2.398-3.825-2.699-5.024-.45-1.648-.676-1.875-.898-.898-.227.75 0 2.324.449 3.597.676 2.028.676 2.102-.676 1.426-1.125-.602-1.5-1.574-1.5-4.125 0-1.875.375-3.375.75-3.375.45 0 .75-.375.75-.75 0-.45-9.148-.75-25.875-.75C4.051 24 0 24.148 0 25.05c0 .825 1.125 1.052 4.5 1.126 2.477 0 4.875.222 5.398.523.454.301.602.227.375-.222-.523-.829 12.602-.829 13.426 0 .301.296.977.148 1.574-.301.676-.676 1.278-.602 2.028 0 .597.523 1.199.597 1.426.3.296-.453 15.824-.675 18.671-.3.227.074.454 1.273.454 2.773 0 2.028-.602 3.227-2.25 4.801-1.204 1.2-2.176 2.324-2.176 2.55.3 2.177-.074 2.473-3.602 2.4-2.023-.075-3.597.152-3.375.374.153.301-1.8.75-4.426 1.051-2.546.3-5.773.602-7.046.75-1.352.148-2.477 0-2.477-.375s-.523-.523-1.125-.3c-.676.3-1.2-.223-1.574-1.575-.301-1.273-.824-1.8-1.574-1.574-.602.222-.829.074-.602-.301.602-.977-5.625-.977-8.176 0-1.199.45-1.949.45-1.949 0 0-.375-.602-.45-1.273-.227-1.051.375-1.051.602-.153.829.528.222 1.278.671 1.5 1.125.301.375 1.051.375 2.028-.153 1.722-.898 5.324-1.125 7.199-.375 1.426.528 1.574 2.625.222 3.977-.75.824.676.898 8.102.523 20.176-1.05 22.574-1.347 24.45-2.773l1.8-1.352-3 .45c-1.648.226-2.773.152-2.398-.149.296-.375 1.949-.898 3.75-1.2l3.148-.448-3.977-.153c-3.597-.074-3.898-.222-2.847-1.199.676-.676 2.472-1.125 4.574-1.125 2.926 0 3.45.227 3.074 1.2-.222.6-.148.976.227.75.375-.223.898.3 1.125 1.277.222.898 1.125 2.773 1.949 4.125 1.273 2.023 1.8 2.324 2.625 1.648.824-.676 1.2-.3 1.8 1.95 1.2 4.277 4.274 7.05 7.723 7.05 1.801 0 2.778.3 2.477.75-.3.45.898.75 3.148.75 3 0 3.75-.3 4.352-1.648.45-.977 2.55-3.079 4.8-4.727l3.973-2.926-.296-4.05c-.301-3.672-.301-3.899.597-2.25.528 1.05 1.125 3.152 1.352 4.8.222 1.574.597 3.602.75 4.426.222.824.898 3.676 1.5 6.375.676 2.7 1.5 5.926 1.875 7.273.523 1.954.449 2.625-.75 3.903-5.102 5.398-28.426 11.25-32.551 8.097-.824-.671-1.2-1.421-.898-1.796.375-.301.972 0 1.347.75.45.671 1.352 1.273 2.028 1.199.75 0 .898-.227.375-.45-.528-.152-.977-.75-.977-1.277 0-.523-.676-1.574-1.5-2.324-.898-.824-1.352-1.95-1.125-2.926.148-.898.45-3.597.676-6.074.222-2.477.676-6.375.898-8.625.375-3.523.227-4.352-1.05-5.477-1.5-1.347-1.5-1.273-2.473 7.653C57 60.449 56.476 63 55.726 63c-1.203 0-1.203 0 .149 3.227 1.648 3.898 1.426 7.046-.676 9.75-1.05 1.421-1.875 3.671-2.023 5.398-.227 3.523-.676 4.574-1.426 3.45-.227-.524-.523.152-.523 1.425 0 3-.528 3.45-2.403 1.574-3.074-3.074-8.773-5.324-13.347-5.25-2.403 0-3.903.227-3.375.45.449.152.898.675.898 1.05s-.824.227-1.875-.222c-2.176-.977-2.176-.903 2.023-13.204C34.727 66 36 61.574 36 60.824s.824-2.773 1.8-4.648c4.65-8.852 6.45-12.227 6.45-12.301 0 0-1.2.074-2.625.227-1.426.148-2.398.597-2.176.972.227.375.75.528 1.125.301.375-.3.676-.148.676.3 0 .75-2.176 1.052-25.125 2.7C7.5 49.051.301 49.727.148 49.875c-.597.602.75 1.875 1.426 1.426.45-.227 3.375-.528 6.528-.676 3.148-.148 5.847-.375 6-.45.523-.374 2.25-.3 4.125.15 1.125.3 1.875.3 1.722 0-.222-.302 1.801-.524 4.352-.524 2.625-.074 6.824-.301 9.375-.602 2.847-.3 4.574-.222 4.574.227 0 1.574-3.227 6.074-4.352 6.074-1.125.074-1.046.227.153 1.125 1.273.977 1.273 1.125.222 1.574-.671.227-1.046.75-.824 1.125.227.375-1.199.676-3.222.676-5.403 0-11.477.898-11.102 1.574.227.301 1.125.45 2.023.301 3.977-.824 12.903-1.2 12-.523-.523.375-.75 1.199-.449 1.875.375 1.125-.148 1.273-4.5 1.273-2.699 0-4.949.227-4.949.602 0 .296 1.574.449 3.602.375 2.472-.153 3.074 0 2.023.449-1.5.597-1.5.597 0 1.05.824.149-.602.297-3.227.149-3-.074-4.5.074-4.046.523.375.375 3 .602 5.699.454 6.074-.301 6.222.972.3 1.949-4.953.824-8.402.148-7.8-1.426.222-.676 0-1.125-.676-1.125-2.176 0-1.648-1.2.602-1.352 3.148-.222 3.597-.898.671-.898-1.722 0-2.398-.375-2.398-1.2 0-.675-.375-1.05-.824-.902-1.2.375-1.574 4.352-.45 4.352.524.074-.527.75-2.25 1.648-1.8.829-3.078 1.801-2.851 2.102.227.375-.898.824-2.398.977l-2.852.296 3.227.079c3.375.148 3.898 1.125 1.421 2.699-.898.597-1.648.523-2.773-.153C6.45 74.102 0 73.95 0 75c0 .375 1.574.75 3.602.824 1.949 0 4.199.301 5.023.676 1.352.523 1.273.602-.75 1.125-1.2.3-2.55.602-2.926.676-.375.074.528.898 2.028 1.8C8.55 81 9.75 82.052 9.75 82.427s.898.676 2.023.523c1.204-.074 2.551.153 3.153.602.824.597.972.597.597-.074-.972-1.579 10.801-1.051 12.227.523.602.676 1.727 1.426 2.477 1.727 1.722.597 2.847 3.597 1.875 4.796-.454.528-.454.977-.079.977s.75.602.829 1.273c.375 3.829.75 5.028 1.574 5.329.523.148 0 1.273-1.426 2.847-1.2 1.426-2.25 3-2.324 3.528-.375 4.125-.227 5.625.597 6.898 1.579 2.324 1.204 2.773-2.023 2.477-1.648-.153-3-.079-3 .148 0 .227-4.2.3-9.375.148-6.523-.148-9.375 0-9.375.602 0 .45.3.602.75.375.45-.227.523.074.3.676-.226.676-.152 1.199.15 1.273.374 0 1.277.153 2.027.301.671.148 1.273-.074 1.273-.45 0-.374 4.875-.675 11.102-.6 7.046.073 10.125.3 8.546.675-4.347 1.05-3.523 1.426 2.028.977 4.05-.301 5.324-.227 5.324.523s.227.75 1.125 0c.602-.45 1.426-.676 1.875-.375 1.05.676 4.648-.227 4.2-.977-.15-.296.3-.597 1.124-.597 1.727 0 1.801.3.074 2.176-1.199 1.421-1.199 1.5.454.597 1.046-.597 1.648-.597 1.648-.074 0 .45 2.398.75 6 .75 4.2 0 6.602.375 7.8 1.2 1.575.976 4.723 1.124 21.973.902 14.102-.153 20.551-.528 21.602-1.125 1.8-1.125 4.2-1.051-22.574-.977l-21.903.074-.449-1.722c-.222-.977-.449-2.028-.449-2.403 0-1.125 19.2 0 21.676 1.278 1.875.972 2.324.972 2.625.074.222-.602.148-1.051-.153-1.051-.296 0-.523-2.176-.523-4.875 0-2.7.3-4.875.602-4.875 4.875 0 5.773.074 5.398.75-.523.824.602 1.05 1.352.227.296-.227-.079-.903-.829-1.426-1.125-.824-.523-.977 4.051-1.051 4.352 0 5.477.227 5.852 1.2.523 1.425-.153 2.476-.903 1.425-.75-1.05-6.972-1.05-6.671-.074.296.972 15.296 1.5 15.824.523.222-.3-.45-.449-1.426-.222-2.55.449-2.324-.301.375-1.204 1.2-.449 2.176-.597 2.176-.296-.375 2.472.222 3.898 1.648 3.898.824 0 1.278.375 1.051.75-.3.45-.75.602-1.125.375-.75-.45-1.5.523-1.875 2.625-.227 1.273-.074 1.352 1.125.523 1.2-.75 1.727-.597 2.773.528 1.278 1.347 1.278 1.426.079.972-1.653-.597-1.727.454-.153 2.028 1.051 1.125 1.051 1.199-.449 1.199-1.05 0-1.5-.375-1.352-1.273.301-1.579-2.023-2.176-3.597-.903-1.875 1.574 1.199 2.926 6.449 2.852 4.2-.153 4.5-.227 4.125-1.727s-.3-1.426.45.153c.675 1.199 1.573 1.648 3.374 1.648 1.352 0 2.7.3 2.926.75.523.824 14.477 1.05 16.426.3 2.847-1.05.676-1.425-7.727-1.198l-8.847.296-.903-2.472c-.449-1.278-.824-2.551-.824-2.625 0-.45 9.074-.227 13.727.375 2.472.3 4.648.972 5.097 1.648.45.75.676.074.676-2.097v-3.079l-3.898-.296c-2.176-.153-4.579-.602-5.329-.903-.972-.449-1.199-.375-.824.528.227.597.074 1.347-.375 1.648-.523.3-.824-.375-.824-1.8 0-1.5.375-2.25.977-2.098.597.074.972-1.125 1.125-3.829.296-5.25 1.273-4.949 1.273.375 0 4.051.148 4.352 1.875 4.653 1.8.222 1.8.148.523-1.2-.898-1.124-1.273-2.777-1.273-6.374 0-4.5-.148-4.954-1.648-5.403-.977-.222-2.028-.449-2.329-.449-.375 0-.375 2.55-.148 5.7.45 4.198.375 5.624-.3 5.25-.45-.302-.825-2.098-.825-3.973 0-1.954-.227-3.301-.45-3-.3.222-.448 2.023-.448 3.972.074 2.551-.153 3.375-.903 3.074-.523-.222-1.426-.074-2.023.301-.75.45-.528.676 1.05.676 1.723 0 2.024.3 2.024 2.102 0 1.875-.3 2.171-2.25 2.171-1.2 0-2.324-.375-2.324-.824-.074-.449-.153-1.722-.227-2.847-.222-3.153-1.199-3.454-1.199-.301 0 2.625-.074 2.699-1.648 1.8-.977-.527-1.954-.828-2.25-.75-.301.075-.375-.374-.153-.902.227-.676-.449-1.648-1.648-2.398-1.125-.75-2.625-2.324-3.375-3.602-1.2-2.023-1.2-2.324-.074-4.125.671-1.05 1.421-2.097 1.648-2.324.3-.227.676-.977.977-1.727.222-.671.972-1.273 1.648-1.273.602 0 1.125-.375 1.125-.75 0-.45.676-.75 1.5-.75 1.125 0 1.5.523 1.574 2.023.375 10.125.528 11.477 1.278 11.477.296 0 .449-2.324.296-5.176-.222-4.8-.148-5.176 1.5-5.55 2.625-.75 2.852-.672 3.602 1.124.676 1.727.676 1.727.676.079.074-.903.523-1.801 1.05-1.954.75-.296.75-.449 0-.449-.675-.074-.976-1.273-.976-3.375 0-1.875-.3-3.597-.75-3.824-.45-.3-.75.977-.75 3.3 0 3.75 0 3.825-2.324 3.825-2.176 0-2.25-.148-2.028-2.773.153-2.176.75-3.153 2.551-4.352 3.227-2.102 7.5-7.95 10.574-14.477 2.028-4.273 2.778-5.324 3.528-4.722.824.676.972-.45 1.05-5.7.075-4.8-.078-6.152-.601-4.874-.375.898-.602 3-.45 4.648.223 2.023.075 2.852-.527 2.477-.449-.301-.597 0-.296.75.597 1.648-.454 1.648-6.375-.227-2.551-.824-4.875-1.5-5.102-1.5-.75.074 2.625 1.8 3.75 2.023.602.079 1.5.676 2.023 1.352.454.75 1.204 1.05 1.579.824.375-.222.898.227 1.125 1.051.222.977 0 1.5-.676 1.5-.602 0-.824.45-.602 1.125.301.602.074 1.125-.449 1.125-.45 0-.676.227-.45.602.15.296-.152 1.199-.75 2.023-.823 1.125-1.277 1.2-2.027.45-.449-.45-.972-1.2-.972-1.575-.074-.45-.153-1.05-.227-1.426-.148-1.347-2.023-1.426-2.023-.074 0 .824.375 1.2 1.125.898.676-.222.898-.074.523.454-.222.449-.148.972.301 1.273.45.3.523.898.227 1.352-.301.523-.454 1.648-.301 2.546.074.977-.074 1.727-.45 1.727-.374 0-3.3 2.55-6.527 5.625-3.222 3.074-6.148 5.625-6.449 5.625-.227 0-.977.824-1.5 1.875-.75 1.352-1.2 1.648-1.648.977-.977-1.579-.676-2.329 2.023-5.403 1.426-1.648 2.477-3.148 2.25-3.3-.602-.598-2.625 1.5-2.176 2.175.227.375-.148.676-.75.676-.597 0-1.5.602-1.875 1.352-.375.75-1.426 1.347-2.324 1.421-.898.079-2.25.676-2.926 1.278-1.722 1.574-4.125 1.574-3.523.074.824-2.176-1.125-1.05-2.625 1.5-1.278 2.102-2.028 2.625-3.903 2.625l-2.398.074 2.477 1.051c1.347.602 2.324 1.426 2.023 1.875-.227.45 0 .523.676.3.676-.226 1.199-.152 1.199.223 0 .301 1.2 1.278 2.625 2.028 2.023 1.125 2.852 1.273 3.523.597 1.278-1.273 2.551-1.125 3.977.375 1.2 1.204 1.2 1.278-.45 1.875-.976.375-1.948.375-2.402-.074-.375-.375-2.472-.523-4.648-.3-3.676.374-4.125.226-6.75-2.098-1.5-1.426-3.227-2.778-3.75-3.074-1.352-.829-2.023-4.125-1.2-5.704.973-1.875 9.376-6.148 12-6.148 1.575 0 2.774-.75 4.5-2.852 1.274-1.5 2.774-3.296 3.376-4.046.597-.676.898-1.426.676-1.653-.301-.222-.079-.449.375-.449.523 0 .898-.523.898-1.2 0-.6.3-.902.75-.675.45.227.523-.074.3-.676-.527-1.347-1.8-.898-1.8.676 0 .523-.523 1.2-1.2 1.426-.6.222-.902.75-.675 1.199.227.375.074.75-.3.75-.45 0-.825.45-.825.977 0 .523-1.05 2.097-2.324 3.523-2.028 2.25-2.403 2.398-3.074 1.273-.375-.75-.528-1.574-.301-1.949.222-.375-.074-.898-.75-1.125-1.95-.75-2.028-.523-.75 1.426 1.199 1.8 1.199 1.875-.301 1.875-1.05 0-1.5-.523-1.574-1.727-.074-1.648-.074-1.648-.602.153-.222.972-1.199 2.097-2.176 2.398-2.398.903-2.097-.824.602-3.523 1.2-1.2 2.25-2.625 2.25-3.227 0-.676.602-.824 1.8-.523 2.25.523 8.473-2.324 7.348-3.45-.523-.527-1.5-.527-3.222.075-2.176.75-2.551.597-4.653-1.352-1.199-1.273-3-3.523-3.972-5.097l-1.727-2.852.074 3.148c.079 1.727.301 3 .602 2.852.602-.375 2.25 2.926 2.25 4.5 0 1.574-2.773 1.426-3.676-.227-.824-1.574-1.5-12.449-.676-11.171.301.523.602.597.602.074 0-.375-.3-1.051-.676-1.5-.375-.375-1.875-5.477-3.3-11.25-3-12.074-6.297-19.727-9.149-21.301-2.25-1.2-3.3-4.352-1.8-5.324 1.726-1.051 2.55-.375 2.777 2.398.222 2.551.375 2.7 5.25 4.2 8.171 2.55 13.949 4.8 15.449 6.152.75.676 2.324 3.074 3.523 5.324l2.102 4.125.074-3.227c0-1.722.375-3.148.75-3.148.45 0 .75 1.5.75 3.3 0 1.802.227 3.973.45 4.723.374 1.278.374 1.278-.677 0-.597-.671-1.273-1.273-1.5-1.273-.824 0 .375 4.727 1.727 6.977 1.2 1.949 1.352 1.949 1.727.597.222-.824 0-1.648-.454-1.8-.449-.149-.597-.825-.296-1.5.375-1.047 1.5-1.274 5.847-1.274 4.875 0 5.25.074 4.352 1.273-.602.676-.903 1.278-.75 1.278.148.074-.074 1.273-.602 2.773-.449 1.5-.75 3.227-.676 3.75.153.602-.375.977-1.199.903-.972-.079-1.125.148-.523.75.523.523 1.199.449 2.176-.454.898-.824 1.949-1.125 2.847-.824 1.2.45 1.2.375-.222-.898l-1.653-1.426 2.25-7.5c2.477-8.55 2.625-9.824 1.875-12.227-.3-.972-.222-1.648.227-1.648.375 0 .898.602 1.05 1.273.223.829.376.528.45-.75.074-1.347-.301-2.023-1.051-2.023S129 36 129 34.273c0-1.273-.227-4.199-.45-6.375L128.024 24h8.028c7.426 0 10.125-.75 6.3-1.8-1.874-.45-8.027-.524-9.226 0zM81.898 27c.454 0 .602.676.375 1.426-.222.972.301 2.097 1.5 3.222 1.051.977 2.176 2.403 2.625 3.227.528.977-.148.602-1.796-.977-2.329-2.171-2.704-2.324-3.602-1.273-.824.977-1.125.977-1.574.227-.375-.528-.676-1.5-.676-2.102 0-.898.148-.977.676-.074.523.824.824.676 1.574-.676.45-.898.676-1.8.45-2.102-.223-.222-.45-.074-.45.375 0 .375-.523.75-1.125.75-1.352 0-1.352.079-.227-2.472.75-1.574 1.051-1.801 1.204-.824.148.671.597 1.273 1.046 1.273zm9.977 1.95c-.3 3.374-.602 3.6-2.55 2.55-1.052-.523-1.575-1.574-1.575-3 0-1.95.3-2.25 2.176-2.25 2.023 0 2.176.148 1.949 2.7zm3.824 38.925c-.222.602-.148 1.125.227 1.125.3 0 .523.898.523 2.023-.074 1.204.153 2.704.528 3.528.449.972.449 1.199-.153.898-.449-.3-.824-.148-.824.227 0 .449.375.824.75.824.45 0 .75.523.75 1.2 0 .675.676 1.35 1.426 1.573 2.176.528 2.398 2.102.75 4.125-.903.977-1.426 2.403-1.2 3.301.297 1.875-2.476 3.903-4.05 2.926-.602-.375-.75-.3-.375.3.3.45.222 1.274-.153 1.802-1.046 1.273-1.875 6.75-.898 6.148.45-.227.523.074.3.676-.3.676.075 1.347.75 1.648.677.227.973.75.75 1.125-.226.375.075.676.598.75.829.074-.898.602-5.546 1.801-.75.148-1.5 0-1.727-.375-.602-1.05-3.824.898-5.102 3.148-.671 1.125-.898 2.25-.597 2.477.375.148.824 1.2.972 2.25.375 1.574.079 1.875-1.574 1.95-1.05.073-2.25.073-2.625 0-.75-.15-11.926-.825-13.722-.825-5.102 0-10.727-.898-10.278-1.574.227-.375-.074-.45-.676-.227-.671.227-1.199-.222-1.5-1.125-.222-.898-.074-1.347.301-1.125.45.227.528-.375.153-1.722-.301-1.125-.528-3-.528-4.204.074-1.273-.3-2.023-.972-2.023-.602 0-1.579-.523-2.176-1.125-1.051-.977-.903-1.125 1.125-1.125 1.273 0 2.324-.375 2.324-.75 0-.45-1.05-.75-2.324-.75-2.102 0-2.25-.148-1.875-2.398.222-1.278 1.199-3 2.324-3.903 1.05-.898 2.023-2.324 2.102-3.222 0-.903.375-1.426.671-1.278.301.227.602.153.676-.222 0-.301.153-2.176.301-4.125.3-4.426 1.574-7.125 1.727-3.602.074 2.852.898 4.05.972 1.426.074-.977.074-2.176 0-2.625-.148-1.2 2.25-2.028 3.153-1.125.375.375 1.199.523 1.722.3.602-.226 1.051-.078 1.051.223 0 .375 1.727.676 3.75.676 2.102 0 3.75-.3 3.75-.676 0-.375.148-.523.45-.3.226.226 1.948-.075 3.902-.672 1.949-.602 4.046-1.204 4.648-1.352.602-.074 2.102-.523 3.3-1.05 1.2-.45 2.325-.677 2.552-.524.148.222 1.199-.227 2.25-1.051.972-.824 2.097-1.352 2.398-1.125.3.148 1.352-.523 2.25-1.5 1.95-2.102 3.375-2.477 2.7-.75zm-75.222 3.3c2.699.075 4.199.376 3.898.825-.523.824-8.477 1.05-10.426.3-1.574-.6-.824-1.726.903-1.425.671.148 3.222.3 5.625.3zM31.5 72c0 .375-.898 2.398-2.023 4.5l-2.102 3.75h-7.352c-4.046 0-8.023.375-8.847.75-1.801.977-1.801.45.148-3.523 1.95-4.051 2.403-4.278 5.028-2.926 1.199.597 2.546.824 3.148.449.602-.3 2.55-.824 4.352-1.125 1.722-.3 3.148-.824 3.148-1.125 0-.602 1.574-1.2 3.602-1.426.449 0 .898.227.898.676zm8.25 12c0 .375.523.75 1.125.75s1.125.375 1.125.824c0 .375.375.528.75.301.45-.3 1.875.602 3.227 1.95 1.347 1.277 1.949 2.175 1.5 1.874-1.125-.676-1.352 1.5-.227 2.176.45.227.75 1.2.75 2.023v1.579l-1.727-1.579c-.972-.898-1.949-1.648-2.25-1.648-1.125 0-.449 2.477.977 3.602.824.75 2.625 3.222 4.05 5.546 2.098 3.602 2.473 4.801 2.177 7.352-.227 1.648-.977 3.375-1.653 3.898-1.05.829-1.05.829-.222-.296.597-.676.671-1.426.296-1.653-.75-.449-1.796 2.176-1.125 2.778.153.222 2.926.222 6.153 0 3.222-.227 6.074-.153 6.3.222.223.375-.527.676-1.578.602-1.125 0-4.347.222-7.273.449-6.523.676-7.574-.148-6-4.5.898-2.55.898-3-.227-3.898-.824-.676-1.046-.75-.597-.079.3.528.148.977-.227.977-1.05 0-1.05-1.273-.074-1.875 1.426-.898.75-1.875-1.2-1.875-1.874 0-1.948.148-1.5 2.773.223 1.579.45 3.301.45 3.75 0 .528.523.977 1.125.977s1.125.3 1.125.75c0 .375-.3.75-.75.75s-.45.75.074 2.023c.977 2.625-.676 3.829-2.472 1.727-.829-1.05-2.102-1.5-4.204-1.5-3 0-3 0-4.347-4.273-.977-3-1.125-4.352-.528-4.5.528-.227.75-.75.528-1.352-.301-.676.676-1.574 2.699-2.625 2.625-1.352 2.926-1.727 2.023-2.477-3.074-2.546-4.574-12.375-2.25-14.921 1.278-1.426 3.977-1.875 3.977-.602zm75.148 9.75c.375 3.898-1.347 7.5-3.671 7.5-.528 0-.977.3-.977.75 0 1.426-1.5.75-4.352-1.875-2.472-2.324-2.625-2.55-1.125-2.625 1.653 0 3.602 2.398 2.704 3.3-.227.223.074.45.824.45.676 0 1.125-.3.898-.676-.222-.375.074-.824.676-1.125.602-.222 1.125-.75 1.125-1.199 0-.523-.45-.602-1.426-.074-1.05.597-1.648.523-2.324-.301-.75-.898-.676-1.2.227-1.574.597-.227 1.574-.375 2.097-.227 1.95.227 3-.074 2.625-.75-.3-.375 0-.898.45-1.05.75-.297.675-.598-.149-1.2-.898-.597-.824-.75.602-.597.898 0 1.722.597 1.796 1.273zm3.454 14.852c.898.148 1.648.597 1.648.972 0 1.653-7.05-.148-7.8-2.023-.223-.676-.075-.903.3-.676.45.227.75.148.75-.3 0-1.5 2.625-1.274 3 .3.227.824 1.2 1.574 2.102 1.727zm2.324 3.148c-1.125.602-5.926.148-5.926-.676 0-.222 1.574-.3 3.523-.148 2.176.148 3.079.449 2.403.824zm3.074 2.102c0 .671-.148.75-4.875 1.199-1.648.222-2.176.148-1.125-.074 1.05-.153 2.176-.676 2.625-1.051.824-.824 3.375-.903 3.375-.074zm0 0"/><path d="M54.898 94.727c-.148 2.398 0 2.847.602 1.875.45-.676.676-1.954.523-2.778-.449-2.773-.972-2.324-1.125.903zM36.75 105.148c0 .528.602 2.625 1.352 4.579 1.199 3.148 1.5 3.449 2.398 2.472.75-.972.75-1.199-.3-1.199-1.052 0-1.126-.3-.45-1.574.75-1.278.602-1.574-.75-1.95-.898-.226-1.426-.828-1.2-1.425.223-.528.075-1.2-.3-1.426-.45-.3-.75 0-.75.523zm25.648-82.125c-.449.153-.671.75-.375 1.204.301.449 0 .597-.671.375-.676-.301-1.125 0-1.125.597 0 .676.449.977 1.199.676.75-.3.523.148-.45 1.125-2.101 1.875-2.101 1.875-.226 2.023.824.079 1.352-.148 1.125-.597-.3-.375-.074-.676.375-.676.45 0 .75-.75.602-1.727-.227-1.5.148-1.722 3.523-2.023 2.625-.3 3.375-.523 2.398-.977-1.574-.597-4.875-.597-6.375 0zM55.5 25.5c0 .824-.074 1.727-.148 2.023-.079.375.449.676 1.125.829 1.648.296 1.796-3.227.148-3.903-.75-.3-1.125.074-1.125 1.051zm-42.977 2.55c-.375.973-1.125 1.2-2.773.9-1.2-.15-2.25-.075-2.25.3 0 .824 2.852 1.5 6.602 1.5 5.25 0 3.523 1.5-1.875 1.648l-5.102.153L12.75 33c3.074.3 4.426.523 3 .602-4.125.222-5.25 1.5-1.2 1.347 1.876 0 3.45-.3 3.524-.676.602-3.296.153-4.949-1.347-5.25-.903-.148-1.801.079-2.028.528-.148.449-.597 0-.972-.977-.602-1.574-.829-1.648-1.204-.523zM1.5 39.676c-1.648.449-1.727.597-.523 1.05 2.25.825 4.046.598 4.046-.601 0-1.2-.597-1.273-3.523-.45zm12 1.5c-.45.898-1.574 1.574-2.477 1.574-1.199 0-1.347-.227-.671-.676.75-.449.523-.75-.977-.972-1.273-.301-2.102-.079-2.398.597-.227.602-.602.903-.903.75-.222-.148-1.125.153-1.949.75-1.273.977-1.2 1.051 1.574 1.051 5.403 0 8.477-.824 9-2.398.602-2.102-.148-2.551-1.199-.676zm3.75 4.199c-.523.602-2.176 1.125-3.676 1.2-1.5.073-3.523.374-4.574.675-1.2.375-.148.45 2.625.227 2.477-.227 4.875-.75 5.398-1.125.454-.375 2.477-.977 4.5-1.352l3.602-.602-3.45-.074c-2.25-.074-3.823.301-4.425 1.051zm31.5.075c0 1.198 4.125 7.277 5.7 8.55 1.35 1.05 1.35 1.05.152-.45-.75-.823-1.352-1.726-1.352-2.027 0-.449-3.375-5.625-4.2-6.449-.152-.148-.3 0-.3.375zM0 46.426c0 .375 1.5.676 3.3.597 1.802-.074 3.15-.375 2.927-.671-.454-.829-6.227-.75-6.227.074zm141.523 1.347c-.972.903-.523 3.375.977 5.25s1.5 1.875 1.5.301c0-.898-.3-1.5-.676-1.199-.375.227-.898.074-1.199-.375-.227-.375.074-.75.676-.75.676 0 1.199-.523 1.199-1.2 0-1.05-.148-1.124-1.273-.226-1.125.977-1.204.903-.829-.676.454-1.722.375-1.949-.375-1.125zM1.727 55.8C.676 56.25 0 57.3 0 58.274c0 2.25.602 2.176 1.5-.148.602-1.5 1.273-1.875 3.523-1.95 2.25 0 2.551-.152 1.352-.675-1.875-.824-2.55-.75-4.648.3zm63.973-.374c-.598.898 1.35 1.574 4.198 1.574 2.704 0 2.551-.523-.148-.898-1.05-.153-2.25-.528-2.773-.829-.454-.296-1.051-.222-1.278.153zm36.374 2.847c-.898 1.204-1.875 2.477-2.324 3-.375.528-.75 1.352-.75 1.875 0 1.204 2.926-2.398 3-3.597 0-.45.75-1.426 1.727-2.028.898-.671 1.273-1.199.75-1.199-.454-.074-1.579.824-2.403 1.95zM6 58.352c0 .75 3.375 1.574 8.176 2.023 2.847.3 2.324-.824-.676-1.352-1.05-.222-3.148-.597-4.648-.898-1.801-.3-2.852-.227-2.852.227zm106.2 1.796c-.223.977-.376 3.375-.376 5.477.153 3.523.153 3.375.75-1.5.602-5.324.45-6.977-.375-3.977zm5.25.375c.073 1.204.152 2.704.226 3.375 0 .75.449 1.352.824 1.352.45 0 .676-1.5.602-3.375-.153-1.875-.602-3.375-.977-3.375-.45 0-.75.898-.676 2.023zM41.773 60.3c-.222.524.676 1.95 1.954 3.223 3.222 3 5.023 3.977 3.148 1.727-2.625-3.148-3.227-3.75-4.05-3.75-.45 0-.598-.523-.376-1.125.301-.602.301-1.125.074-1.125-.222 0-.523.45-.75 1.05zm64.727 1.126c0 .523-.375.676-.824.449-.375-.3-1.727-.074-3 .375-1.653.75-2.176 1.426-2.102 2.926 0 1.8.074 1.875.75.449.903-1.8 3.602-3.676 4.278-3.074.222.3-.301 1.5-1.204 2.699-1.046 1.426-1.273 2.023-.597 1.8 1.273-.448 3.824-5.476 3.148-6.073-.222-.301-.449-.079-.449.449zm12.148 10.199c-1.125 2.398-1.125 2.625-.148 2.625.45 0 .75-.676.75-1.5s.523-1.5 1.2-1.5c.6 0 .902-.375.675-.75-.75-1.273-1.574-.824-2.477 1.125zM44.852 73.2c-.301.226.972 1.874 2.773 3.675 1.875 1.727 3.676 3.977 4.125 4.95.75 1.652.75 1.652.375-.45-.45-2.324-6.45-9.074-7.273-8.176zm95.171.902c-.375.523-.375 5.324-.074 10.648l.528 9.75-2.176.074c-2.551.074-5.852 1.2-4.051 1.5 1.875.227 9.375-.222 9.75-.597.148-.153-.148-.602-.676-.903-.676-.449-.75-.824-.148-1.125.449-.3.824-1.05.824-1.722 0-.977-.227-.977-1.125-.227-.977.824-1.125.3-1.05-3.977.073-2.625-.15-5.546-.376-6.375-.375-1.125-.148-1.648.824-1.875 1.204-.296 1.204-.375.079-.449-.903-.074-1.352-.898-1.5-2.926-.153-1.722-.454-2.398-.829-1.796zM0 82.05C0 83.853 5.852 92.927 6.977 93c.375 0 .449-.3.222-.676-.676-.972 1.426-1.574 5.625-1.574 2.028 0 3.676-.3 3.676-.602 0-.296-1.875-.523-4.273-.449-4.5.153-5.102-.222-9.153-5.55C1.574 82.124 0 81 0 82.05zm0 0"/><path d="M.074 93.523c0 1.352.301 2.477.75 2.477.375 0 .528.3.301.75-.227.375-.074.75.375.75.45 0 .602.3.375.75-.227.375-.074.75.3.75 1.427 0 .9 1.352-.675 1.875-2.25.75-1.8 2.324.898 3.227l2.477.75L.523 105l.528 5.25c.3 3.375.148 5.25-.301 5.25-.375 0-.75.977-.75 2.25V120h7.2c5.402 0 7.124-.227 6.823-.977-.296-.972-.824-.972-4.875-.222-2.097.449-2.625.222-2.921-1.051-.375-1.5-1.727-2.102-1.727-.75 0 .375-.676.75-1.5.75-1.352 0-1.352-.074-.148-2.176.671-1.199 1.574-2.023 2.023-1.722.375.222.148-.301-.523-1.125-.75-.829-1.352-2.551-1.352-3.829 0-1.949.227-2.25 1.5-2.023.824.148 1.352 0 1.125-.45-.3-.374-.074-.675.3-.675.45 0 .825.523.825 1.2 0 1.124.148 1.124 1.875 0 .977-.677 2.926-1.2 4.273-1.2 1.579 0 2.102-.227 1.5-.676-.75-.449-.671-.824.301-1.648.903-.676 1.125-.75.75-.153-.3.528-.148.977.227.977.449 0 .824-.3.824-.676 0-.3 2.25-.676 5.102-.75 6.523-.148 8.097-.449 7.796-1.5-.074-.449.676-1.199 1.727-1.574 2.324-.898 2.398-1.574.227-1.273-1.278.074-1.653-.227-1.727-1.727 0-1.273-.523-1.95-1.875-2.324-1.2-.301-1.426-.528-.523-.602.671-.074 1.273-.375 1.273-.676 0-.375-.75-.597-1.648-.449-.977.074-2.926.227-4.352.375l-2.625.153 6 1.046-3.602.153c-2.023 0-3.449-.153-3.296-.528.222-.296-1.278-.375-3.301-.296-2.028.148-3.676.597-3.676 1.046 0 .375-.3.454-.75.227-.75-.45-1.05.45-.824 2.773.222 1.954-1.051 1.653-2.028-.523-.449-1.05-1.421-1.875-2.097-1.875-.977 0-1.125.523-.75 2.625.449 2.102.3 2.625-.676 2.625-.602 0-1.2-.75-1.273-1.727 0-.898-.153-2.023-.227-2.398-.148-.45-.3-1.125-.375-1.5-.074-.45-.148-.977-.074-1.273 0-.301-.45-.375-.977-.153-.597.227-1.199-.148-1.426-.972-.222-.75-.375-.301-.449 1.046zm28.051 4.125c-.074.977-.227 1.954-.3 2.25 0 .375-1.427.602-3.15.602-1.652 0-2.85-.3-2.55-.676.227-.375.074-.898-.375-1.199-.375-.227-.75 0-.75.602 0 1.125-2.176 2.023-5.023 2.023-.977 0-3.602.898-5.926 2.023-3.074 1.5-4.352 1.875-4.574 1.125-.227-.449-.903-.898-1.579-.898-.75-.074 0-.75 1.579-1.574 1.648-.824 3.074-1.352 3.375-1.125.671.75 2.398-1.125 2.398-2.625 0-.824.676-1.574 1.727-1.801C14.699 96 27 95.477 27.824 95.773c.301.079.375.977.301 1.875zm110.625 0c-.227 1.801-.227 3.829 0 6.75.148 1.801.3 2.028.602.977.375-1.5.375-1.5.972 0 .602 1.5.602 1.5.602 0 0-2.102-2.028-9.3-2.176-7.727zM86.7 111.375c-.15.523-.15 1.727.073 2.625.375 1.426.829 1.574 4.352 1.352 3-.153 3.824 0 3.523.75-.222.671.153.898 1.426.597.977-.222 4.051-.597 6.824-.824 2.778-.3 5.329-.824 5.551-1.273.301-.454.227-.676-.148-.454-.375.227-1.051 0-1.574-.523-.75-.75-.676-1.05.148-1.426.523-.148 1.2 0 1.426.528.148.523.375.375.375-.375.074-1.653-1.2-2.477-2.403-1.5-.523.449-2.472.898-4.273 1.046-2.176.153-3.3.528-3.148 1.125.222 1.426-4.727 1.204-6.153-.222-1.8-1.727-5.472-2.625-6-1.426zm-61.575 9.375c1.8.824 12.676.824 15.75 0 1.426-.375-1.5-.602-7.5-.602-6.074 0-9.148.227-8.25.602zm0 0"/></svg>