<svg version="1.0" xmlns="http://www.w3.org/2000/svg" width="256" height="256" viewBox="0 0 192 192"><path d="M177.5 29.6c-.5.2-4.1.8-8 1.3-4.3.5-5.6.9-3.4 1l3.6.1.2 7.7c.1 4.2.4 8 .6 8.4.5.7-13.1 2.3-14.2 1.6-.5-.3-.7-4.1-.5-8.5l.3-8.1 3.2-.4c1.8-.2-.7-.5-5.5-.5-7.2-.2-8.8.1-8.8 1.3 0 1 .7 1.4 2.3 1.1 1.2-.3 2.3-.5 2.5-.7 2-1.6 5.3 1 4.1 3.3-1.1 2.1-1.2 3.7 0 2 .5-.9.8 1.3.7 5.4l-.1 6.7 8.3-.2 8.4-.2-.5 5.8c-1.1 11.5-.5 10.7-8.3 11.4-3.8.4-7 .6-7 .5-.7-.5-.6-11.5.1-12.9.4-1 .6-1.9.4-2-3.5-2.1-10.6-4.7-13-4.7-1.7 0-5-1.1-7.5-2.5s-5.5-2.7-6.7-2.9c-2.3-.3-4.5-4.9-4.6-9.4-.1-2.1-2.1-3.3-2.1-1.2 0 1.5-4.7 1.2-5.3-.3-.4-1-.6-1-.6 0-.1 1.6-6.8 1.8-7.3.2-.2-.6-2.7-.9-6.3-.6-4.5.2-5.4.5-3.7 1.1 1.8.7 2 1.1 1.1 2.3-1 1.1-.9 1.3.2 1.1.8-.2 1.8-.8 2.2-1.3.4-.6.5.3.1 2-.4 2.3-.3 2.6.5 1.5 1.3-1.9 1.4-.5.2 3.7-.6 2.2-.6 3.2.1 3 .6-.1 1.2.6 1.3 1.5.2 1-.1 1.8-.6 1.8-.6 0-.7.4-.4 1 .3.5.1 1-.5 1-.7 0-.5.7.4 1.6 2 1.9 2 3.1.1 5-.8.9-1.5 1.2-1.5.8 0-1.6-2.1 1.3-2.5 3.4-.6 3.5 2 2.6 4.4-1.3 2.3-4 3.8-10 2.1-9-.5.3-1-.1-1-1 0-1 .5-1.3 1.2-.9.8.5.9.2.5-1-.4-.9.1-2.5 1-3.5 1.5-1.9 1.7-1.8 4.3 1.1 4.2 4.5 4.4 9.2.6 12.1-.7.6-.4.7.7.3 3.1-1 1.8 1.1-1.7 2.8-4 1.9-4.6 2-4.6.6 0-.6.5-.9 1.2-.8.7.2 1.2-.2 1.3-.7 0-.6.4-1.6.9-2.4.6-.9-.1-.7-1.7.5-1.4 1-2.9 3.1-3.2 4.7-.4 1.5-1.1 2.5-1.6 2.1-.5-.3-.9.1-.9.9 0 1.8-2.7 3-3.5 1.6-.4-.5-1.1-.7-1.6-.4-.5.3-.6-.1-.3-1 .5-1.1.2-1.4-1-.9-.9.3-1.6 1.3-1.6 2.1 0 1.3-.3 1.3-1.5.3-1.3-1.1-1.3-1.4.2-2.6 1.6-1.2 1.5-1.3-1-.4-3.4 1.2-6.1 1.2-3.2 0 2.1-.8 2.7-4.3 1.1-6.8-.9-1.5 1-4.2 2.9-4.2.6 0 2-1 3.1-2.1l1.9-2.1-3.4.7c-1.8.4-5.1 1.5-7.3 2.5l-3.9 1.7 3 3.2 3 3.2-2 2c-2.8 2.8-4.9.9-4.9-4.2 0-3.4-.4-4-3.2-5.2-3.5-1.5-7.7-5.4-4.4-4.1 2.3.9 2-.2-1.3-4.4-1.6-2-3.2-5.1-3.6-6.7-.6-2.2-.9-2.5-1.2-1.2-.3 1 0 3.1.6 4.8.9 2.7.9 2.8-.9 1.9-1.5-.8-2-2.1-2-5.5 0-2.5.5-4.5 1-4.5.6 0 1-.5 1-1 0-.6-12.2-1-34.5-1C5.4 32 0 32.2 0 33.4c0 1.1 1.5 1.4 6 1.5 3.3 0 6.5.3 7.2.7.6.4.8.3.5-.3-.7-1.1 16.8-1.1 17.9 0 .4.4 1.3.2 2.1-.4.9-.9 1.7-.8 2.7 0 .8.7 1.6.8 1.9.4.4-.6 21.1-.9 24.9-.4.3.1.6 1.7.6 3.7 0 2.7-.8 4.3-3 6.4-1.6 1.6-2.9 3.1-2.9 3.4.4 2.9-.1 3.3-4.8 3.2-2.7-.1-4.8.2-4.5.5.2.4-2.4 1-5.9 1.4-3.4.4-7.7.8-9.4 1-1.8.2-3.3 0-3.3-.5s-.7-.7-1.5-.4c-.9.4-1.6-.3-2.1-2.1-.4-1.7-1.1-2.4-2.1-2.1-.8.3-1.1.1-.8-.4.8-1.3-7.5-1.3-10.9 0-1.6.6-2.6.6-2.6 0 0-.5-.8-.6-1.7-.3-1.4.5-1.4.8-.2 1.1.7.3 1.7.9 2 1.5.4.5 1.4.5 2.7-.2 2.3-1.2 7.1-1.5 9.6-.5 1.9.7 2.1 3.5.3 5.3-1 1.1.9 1.2 10.8.7 26.9-1.4 30.1-1.8 32.6-3.7l2.4-1.8-4 .6c-2.2.3-3.7.2-3.2-.2.4-.5 2.6-1.2 5-1.6l4.2-.6-5.3-.2c-4.8-.1-5.2-.3-3.8-1.6.9-.9 3.3-1.5 6.1-1.5 3.9 0 4.6.3 4.1 1.6-.3.8-.2 1.3.3 1 .5-.3 1.2.4 1.5 1.7.3 1.2 1.5 3.7 2.6 5.5 1.7 2.7 2.4 3.1 3.5 2.2 1.1-.9 1.6-.4 2.4 2.6 1.6 5.7 5.7 9.4 10.3 9.4 2.4 0 3.7.4 3.3 1-.4.6 1.2 1 4.2 1 4 0 5-.4 5.8-2.2.6-1.3 3.4-4.1 6.4-6.3l5.3-3.9-.4-5.4c-.4-4.9-.4-5.2.8-3 .7 1.4 1.5 4.2 1.8 6.4.3 2.1.8 4.8 1 5.9.3 1.1 1.2 4.9 2 8.5.9 3.6 2 7.9 2.5 9.7.7 2.6.6 3.5-1 5.2-6.8 7.2-37.9 15-43.4 10.8-1.1-.9-1.6-1.9-1.2-2.4.5-.4 1.3 0 1.8 1 .6.9 1.8 1.7 2.7 1.6 1 0 1.2-.3.5-.6-.7-.2-1.3-1-1.3-1.7s-.9-2.1-2-3.1c-1.2-1.1-1.8-2.6-1.5-3.9.2-1.2.6-4.8.9-8.1.3-3.3.9-8.5 1.2-11.5.5-4.7.3-5.8-1.4-7.3-2-1.8-2-1.7-3.3 10.2C76 80.6 75.3 84 74.3 84c-1.6 0-1.6 0 .2 4.3 2.2 5.2 1.9 9.4-.9 13-1.4 1.9-2.5 4.9-2.7 7.2-.3 4.7-.9 6.1-1.9 4.6-.3-.7-.7.2-.7 1.9 0 4-.7 4.6-3.2 2.1-4.1-4.1-11.7-7.1-17.8-7-3.2 0-5.2.3-4.5.6.6.2 1.2.9 1.2 1.4 0 .5-1.1.3-2.5-.3-2.9-1.3-2.9-1.2 2.7-17.6C46.3 88 48 82.1 48 81.1s1.1-3.7 2.4-6.2C56.6 63.1 59 58.6 59 58.5c0 0-1.6.1-3.5.3-1.9.2-3.2.8-2.9 1.3.3.5 1 .7 1.5.4.5-.4.9-.2.9.4 0 1-2.9 1.4-33.5 3.6C10 65.4.4 66.3.2 66.5c-.8.8 1 2.5 1.9 1.9.6-.3 4.5-.7 8.7-.9 4.2-.2 7.8-.5 8-.6.7-.5 3-.4 5.5.2 1.5.4 2.5.4 2.3 0-.3-.4 2.4-.7 5.8-.7 3.5-.1 9.1-.4 12.5-.8 3.8-.4 6.1-.3 6.1.3 0 2.1-4.3 8.1-5.8 8.1-1.5.1-1.4.3.2 1.5 1.7 1.3 1.7 1.5.3 2.1-.9.3-1.4 1-1.1 1.5.3.5-1.6.9-4.3.9-7.2 0-15.3 1.2-14.8 2.1.3.4 1.5.6 2.7.4 5.3-1.1 17.2-1.6 16-.7-.7.5-1 1.6-.6 2.5.5 1.5-.2 1.7-6 1.7-3.6 0-6.6.3-6.6.8 0 .4 2.1.6 4.8.5 3.3-.2 4.1 0 2.7.6-2 .8-2 .8 0 1.4 1.1.2-.8.4-4.3.2-4-.1-6 .1-5.4.7.5.5 4 .8 7.6.6 8.1-.4 8.3 1.3.4 2.6-6.6 1.1-11.2.2-10.4-1.9.3-.9 0-1.5-.9-1.5-2.9 0-2.2-1.6.8-1.8 4.2-.3 4.8-1.2.9-1.2-2.3 0-3.2-.5-3.2-1.6 0-.9-.5-1.4-1.1-1.2-1.6.5-2.1 5.8-.6 5.8.7.1-.7 1-3 2.2-2.4 1.1-4.1 2.4-3.8 2.8.3.5-1.2 1.1-3.2 1.3l-3.8.4 4.3.1c4.5.2 5.2 1.5 1.9 3.6-1.2.8-2.2.7-3.7-.2-2.4-1.4-11-1.6-11-.2 0 .5 2.1 1 4.8 1.1 2.6 0 5.6.4 6.7.9 1.8.7 1.7.8-1 1.5-1.6.4-3.4.8-3.9.9-.5.1.7 1.2 2.7 2.4 2.1 1.2 3.7 2.6 3.7 3.1s1.2.9 2.7.7c1.6-.1 3.4.2 4.2.8 1.1.8 1.3.8.8-.1-1.3-2.1 14.4-1.4 16.3.7.8.9 2.3 1.9 3.3 2.3 2.3.8 3.8 4.8 2.5 6.4-.6.7-.6 1.3-.1 1.3s1 .8 1.1 1.7c.5 5.1 1 6.7 2.1 7.1.7.2 0 1.7-1.9 3.8-1.6 1.9-3 4-3.1 4.7-.5 5.5-.3 7.5.8 9.2 2.1 3.1 1.6 3.7-2.7 3.3-2.2-.2-4-.1-4 .2 0 .3-5.6.4-12.5.2-8.7-.2-12.5 0-12.5.8 0 .6.4.8 1 .5.6-.3.7.1.4.9-.3.9-.2 1.6.2 1.7.5 0 1.7.2 2.7.4.9.2 1.7-.1 1.7-.6s6.5-.9 14.8-.8c9.4.1 13.5.4 11.4.9-5.8 1.4-4.7 1.9 2.7 1.3 5.4-.4 7.1-.3 7.1.7s.3 1 1.5 0c.8-.6 1.9-.9 2.5-.5 1.4.9 6.2-.3 5.6-1.3-.2-.4.4-.8 1.5-.8 2.3 0 2.4.4.1 2.9-1.6 1.9-1.6 2 .6.8 1.4-.8 2.2-.8 2.2-.1 0 .6 3.2 1 8 1 5.6 0 8.8.5 10.4 1.6 2.1 1.3 6.3 1.5 29.3 1.2 18.8-.2 27.4-.7 28.8-1.5 2.4-1.5 5.6-1.4-30.1-1.3l-29.2.1-.6-2.3c-.3-1.3-.6-2.7-.6-3.2 0-1.5 25.6 0 28.9 1.7 2.5 1.3 3.1 1.3 3.5.1.3-.8.2-1.4-.2-1.4s-.7-2.9-.7-6.5.4-6.5.8-6.5c6.5 0 7.7.1 7.2 1-.7 1.1.8 1.4 1.8.3.4-.3-.1-1.2-1.1-1.9-1.5-1.1-.7-1.3 5.4-1.4 5.8 0 7.3.3 7.8 1.6.7 1.9-.2 3.3-1.2 1.9s-9.3-1.4-8.9-.1c.4 1.3 20.4 2 21.1.7.3-.4-.6-.6-1.9-.3-3.4.6-3.1-.4.5-1.6 1.6-.6 2.9-.8 2.9-.4-.5 3.3.3 5.2 2.2 5.2 1.1 0 1.7.5 1.4 1-.4.6-1 .8-1.5.5-1-.6-2 .7-2.5 3.5-.3 1.7-.1 1.8 1.5.7 1.6-1 2.3-.8 3.7.7 1.7 1.8 1.7 1.9.1 1.3-2.2-.8-2.3.6-.2 2.7 1.4 1.5 1.4 1.6-.6 1.6-1.4 0-2-.5-1.8-1.7.4-2.1-2.7-2.9-4.8-1.2-2.5 2.1 1.6 3.9 8.6 3.8 5.6-.2 6-.3 5.5-2.3-.5-2-.4-1.9.6.2.9 1.6 2.1 2.2 4.5 2.2 1.8 0 3.6.4 3.9 1 .7 1.1 19.3 1.4 21.9.4 3.8-1.4.9-1.9-10.3-1.6l-11.8.4-1.2-3.3c-.6-1.7-1.1-3.4-1.1-3.5 0-.6 12.1-.3 18.3.5 3.3.4 6.2 1.3 6.8 2.2.6 1 .9.1.9-2.8v-4.1l-5.2-.4c-2.9-.2-6.1-.8-7.1-1.2-1.3-.6-1.6-.5-1.1.7.3.8.1 1.8-.5 2.2-.7.4-1.1-.5-1.1-2.4 0-2 .5-3 1.3-2.8.8.1 1.3-1.5 1.5-5.1.4-7 1.7-6.6 1.7.5 0 5.4.2 5.8 2.5 6.2 2.4.3 2.4.2.7-1.6-1.2-1.5-1.7-3.7-1.7-8.5 0-6-.2-6.6-2.2-7.2-1.3-.3-2.7-.6-3.1-.6-.5 0-.5 3.4-.2 7.6.6 5.6.5 7.5-.4 7-.6-.4-1.1-2.8-1.1-5.3 0-2.6-.3-4.4-.6-4-.4.3-.6 2.7-.6 5.3.1 3.4-.2 4.5-1.2 4.1-.7-.3-1.9-.1-2.7.4-1 .6-.7.9 1.4.9 2.3 0 2.7.4 2.7 2.8 0 2.5-.4 2.9-3 2.9-1.6 0-3.1-.5-3.1-1.1-.1-.6-.2-2.3-.3-3.8-.3-4.2-1.6-4.6-1.6-.4 0 3.5-.1 3.6-2.2 2.4-1.3-.7-2.6-1.1-3-1-.4.1-.5-.5-.2-1.2.3-.9-.6-2.2-2.2-3.2-1.5-1-3.5-3.1-4.5-4.8-1.6-2.7-1.6-3.1-.1-5.5.9-1.4 1.9-2.8 2.2-3.1.4-.3.9-1.3 1.3-2.3.3-.9 1.3-1.7 2.2-1.7.8 0 1.5-.5 1.5-1 0-.6.9-1 2-1 1.5 0 2 .7 2.1 2.7.5 13.5.7 15.3 1.7 15.3.4 0 .6-3.1.4-6.9-.3-6.4-.2-6.9 2-7.4 3.5-1 3.8-.9 4.8 1.5.9 2.3.9 2.3.9.1.1-1.2.7-2.4 1.4-2.6 1-.4 1-.6 0-.6-.9-.1-1.3-1.7-1.3-4.5 0-2.5-.4-4.8-1-5.1-.6-.4-1 1.3-1 4.4 0 5 0 5.1-3.1 5.1-2.9 0-3-.2-2.7-3.7.2-2.9 1-4.2 3.4-5.8 4.3-2.8 10-10.6 14.1-19.3 2.7-5.7 3.7-7.1 4.7-6.3 1.1.9 1.3-.6 1.4-7.6.1-6.4-.1-8.2-.8-6.5-.5 1.2-.8 4-.6 6.2.3 2.7.1 3.8-.7 3.3-.6-.4-.8 0-.4 1 .8 2.2-.6 2.2-8.5-.3-3.4-1.1-6.5-2-6.8-2-1 .1 3.5 2.4 5 2.7.8.1 2 .9 2.7 1.8.6 1 1.6 1.4 2.1 1.1.5-.3 1.2.3 1.5 1.4.3 1.3 0 2-.9 2-.8 0-1.1.6-.8 1.5.4.8.1 1.5-.6 1.5-.6 0-.9.3-.6.8.2.4-.2 1.6-1 2.7-1.1 1.5-1.7 1.6-2.7.6-.6-.6-1.3-1.6-1.3-2.1-.1-.6-.2-1.4-.3-1.9-.2-1.8-2.7-1.9-2.7-.1 0 1.1.5 1.6 1.5 1.2.9-.3 1.2-.1.7.6-.3.6-.2 1.3.4 1.7.6.4.7 1.2.3 1.8-.4.7-.6 2.2-.4 3.4.1 1.3-.1 2.3-.6 2.3s-4.4 3.4-8.7 7.5c-4.3 4.1-8.2 7.5-8.6 7.5-.3 0-1.3 1.1-2 2.5-1 1.8-1.6 2.2-2.2 1.3-1.3-2.1-.9-3.1 2.7-7.2 1.9-2.2 3.3-4.2 3-4.4-.8-.8-3.5 2-2.9 2.9.3.5-.2.9-1 .9s-2 .8-2.5 1.8-1.9 1.8-3.1 1.9c-1.2.1-3 .9-3.9 1.7-2.3 2.1-5.5 2.1-4.7.1 1.1-2.9-1.5-1.4-3.5 2-1.7 2.8-2.7 3.5-5.2 3.5l-3.2.1 3.3 1.4c1.8.8 3.1 1.9 2.7 2.5-.3.6 0 .7.9.4.9-.3 1.6-.2 1.6.3 0 .4 1.6 1.7 3.5 2.7 2.7 1.5 3.8 1.7 4.7.8 1.7-1.7 3.4-1.5 5.3.5 1.6 1.6 1.6 1.7-.6 2.5-1.3.5-2.6.5-3.2-.1-.5-.5-3.3-.7-6.2-.4-4.9.5-5.5.3-9-2.8-2-1.9-4.3-3.7-5-4.1-1.8-1.1-2.7-5.5-1.6-7.6 1.3-2.5 12.5-8.2 16-8.2 2.1 0 3.7-1 6-3.8 1.7-2 3.7-4.4 4.5-5.4.8-.9 1.2-1.9.9-2.2-.4-.3-.1-.6.5-.6.7 0 1.2-.7 1.2-1.6 0-.8.4-1.2 1-.9.6.3.7-.1.4-.9-.7-1.8-2.4-1.2-2.4.9 0 .7-.7 1.6-1.6 1.9-.8.3-1.2 1-.9 1.6.3.5.1 1-.4 1-.6 0-1.1.6-1.1 1.3 0 .7-1.4 2.8-3.1 4.7-2.7 3-3.2 3.2-4.1 1.7-.5-1-.7-2.1-.4-2.6.3-.5-.1-1.2-1-1.5-2.6-1-2.7-.7-1 1.9 1.6 2.4 1.6 2.5-.4 2.5-1.4 0-2-.7-2.1-2.3-.1-2.2-.1-2.2-.8.2-.3 1.3-1.6 2.8-2.9 3.2-3.2 1.2-2.8-1.1.8-4.7 1.6-1.6 3-3.5 3-4.3 0-.9.8-1.1 2.4-.7 3 .7 11.3-3.1 9.8-4.6-.7-.7-2-.7-4.3.1-2.9 1-3.4.8-6.2-1.8-1.6-1.7-4-4.7-5.3-6.8l-2.3-3.8.1 4.2c.1 2.3.4 4 .8 3.8.8-.5 3 3.9 3 6s-3.7 1.9-4.9-.3c-1.1-2.1-2-16.6-.9-14.9.4.7.8.8.8.1 0-.5-.4-1.4-.9-2-.5-.5-2.5-7.3-4.4-15-4-16.1-8.4-26.3-12.2-28.4-3-1.6-4.4-5.8-2.4-7.1 2.3-1.4 3.4-.5 3.7 3.2.3 3.4.5 3.6 7 5.6 10.9 3.4 18.6 6.4 20.6 8.2 1 .9 3.1 4.1 4.7 7.1l2.8 5.5.1-4.3c0-2.3.5-4.2 1-4.2.6 0 1 2 1 4.4 0 2.4.3 5.3.6 6.3.5 1.7.5 1.7-.9 0-.8-.9-1.7-1.7-2-1.7-1.1 0 .5 6.3 2.3 9.3 1.6 2.6 1.8 2.6 2.3.8.3-1.1 0-2.2-.6-2.4-.6-.2-.8-1.1-.4-2 .5-1.4 2-1.7 7.8-1.7 6.5 0 7 .1 5.8 1.7-.8.9-1.2 1.7-1 1.7.2.1-.1 1.7-.8 3.7-.6 2-1 4.3-.9 5 .2.8-.5 1.3-1.6 1.2-1.3-.1-1.5.2-.7 1 .7.7 1.6.6 2.9-.6 1.2-1.1 2.6-1.5 3.8-1.1 1.6.6 1.6.5-.3-1.2l-2.2-1.9 3-10c3.3-11.4 3.5-13.1 2.5-16.3-.4-1.3-.3-2.2.3-2.2.5 0 1.2.8 1.4 1.7.3 1.1.5.7.6-1 .1-1.8-.4-2.7-1.4-2.7-1 0-1.5-1-1.5-3.3 0-1.7-.3-5.6-.6-8.5l-.7-5.2h10.7c9.9 0 13.5-1 8.4-2.4-2.5-.6-10.7-.7-12.3 0zM109.2 36c.6 0 .8.9.5 1.9-.3 1.3.4 2.8 2 4.3 1.4 1.3 2.9 3.2 3.5 4.3.7 1.3-.2.8-2.4-1.3-3.1-2.9-3.6-3.1-4.8-1.7-1.1 1.3-1.5 1.3-2.1.3-.5-.7-.9-2-.9-2.8 0-1.2.2-1.3.9-.1.7 1.1 1.1.9 2.1-.9.6-1.2.9-2.4.6-2.8-.3-.3-.6-.1-.6.5 0 .5-.7 1-1.5 1-1.8 0-1.8.1-.3-3.3 1-2.1 1.4-2.4 1.6-1.1.2.9.8 1.7 1.4 1.7zm13.3 2.6c-.4 4.5-.8 4.8-3.4 3.4-1.4-.7-2.1-2.1-2.1-4 0-2.6.4-3 2.9-3 2.7 0 2.9.2 2.6 3.6zm5.1 51.9c-.3.8-.2 1.5.3 1.5.4 0 .7 1.2.7 2.7-.1 1.6.2 3.6.7 4.7.6 1.3.6 1.6-.2 1.2-.6-.4-1.1-.2-1.1.3 0 .6.5 1.1 1 1.1.6 0 1 .7 1 1.6 0 .9.9 1.8 1.9 2.1 2.9.7 3.2 2.8 1 5.5-1.2 1.3-1.9 3.2-1.6 4.4.4 2.5-3.3 5.2-5.4 3.9-.8-.5-1-.4-.5.4.4.6.3 1.7-.2 2.4-1.4 1.7-2.5 9-1.2 8.2.6-.3.7.1.4.9-.4.9.1 1.8 1 2.2.9.3 1.3 1 1 1.5-.3.5.1.9.8 1 1.1.1-1.2.8-7.4 2.4-1 .2-2 0-2.3-.5-.8-1.4-5.1 1.2-6.8 4.2-.9 1.5-1.2 3-.8 3.3.5.2 1.1 1.6 1.3 3 .5 2.1.1 2.5-2.1 2.6-1.4.1-3 .1-3.5 0-1-.2-15.9-1.1-18.3-1.1-6.8 0-14.3-1.2-13.7-2.1.3-.5-.1-.6-.9-.3-.9.3-1.6-.3-2-1.5-.3-1.2-.1-1.8.4-1.5.6.3.7-.5.2-2.3-.4-1.5-.7-4-.7-5.6.1-1.7-.4-2.7-1.3-2.7-.8 0-2.1-.7-2.9-1.5-1.4-1.3-1.2-1.5 1.5-1.5 1.7 0 3.1-.5 3.1-1 0-.6-1.4-1-3.1-1-2.8 0-3-.2-2.5-3.2.3-1.7 1.6-4 3.1-5.2 1.4-1.2 2.7-3.1 2.8-4.3 0-1.2.5-1.9.9-1.7.4.3.8.2.9-.3 0-.4.2-2.9.4-5.5.4-5.9 2.1-9.5 2.3-4.8.1 3.8 1.2 5.4 1.3 1.9.1-1.3.1-2.9 0-3.5-.2-1.6 3-2.7 4.2-1.5.5.5 1.6.7 2.3.4.8-.3 1.4-.1 1.4.3 0 .5 2.3.9 5 .9 2.8 0 5-.4 5-.9s.2-.7.6-.4c.3.3 2.6-.1 5.2-.9s5.4-1.6 6.2-1.8c.8-.1 2.8-.7 4.4-1.4 1.6-.6 3.1-.9 3.4-.7.2.3 1.6-.3 3-1.4 1.3-1.1 2.8-1.8 3.2-1.5.4.2 1.8-.7 3-2 2.6-2.8 4.5-3.3 3.6-1zM27.3 94.9c3.6.1 5.6.5 5.2 1.1-.7 1.1-11.3 1.4-13.9.4-2.1-.8-1.1-2.3 1.2-1.9.9.2 4.3.4 7.5.4zM42 96c0 .5-1.2 3.2-2.7 6l-2.8 5h-9.8c-5.4 0-10.7.5-11.8 1-2.4 1.3-2.4.6.2-4.7 2.6-5.4 3.2-5.7 6.7-3.9 1.6.8 3.4 1.1 4.2.6.8-.4 3.4-1.1 5.8-1.5 2.3-.4 4.2-1.1 4.2-1.5 0-.8 2.1-1.6 4.8-1.9.6 0 1.2.3 1.2.9zm11 16c0 .5.7 1 1.5 1s1.5.5 1.5 1.1c0 .5.5.7 1 .4.6-.4 2.5.8 4.3 2.6 1.8 1.7 2.6 2.9 2 2.5-1.5-.9-1.8 2-.3 2.9.6.3 1 1.6 1 2.7v2.1l-2.3-2.1c-1.3-1.2-2.6-2.2-3-2.2-1.5 0-.6 3.3 1.3 4.8 1.1 1 3.5 4.3 5.4 7.4 2.8 4.8 3.3 6.4 2.9 9.8-.3 2.2-1.3 4.5-2.2 5.2-1.4 1.1-1.4 1.1-.3-.4.8-.9.9-1.9.4-2.2-1-.6-2.4 2.9-1.5 3.7.2.3 3.9.3 8.2 0 4.3-.3 8.1-.2 8.4.3.3.5-.7.9-2.1.8-1.5 0-5.8.3-9.7.6-8.7.9-10.1-.2-8-6 1.2-3.4 1.2-4-.3-5.2-1.1-.9-1.4-1-.8-.1.4.7.2 1.3-.3 1.3-1.4 0-1.4-1.7-.1-2.5 1.9-1.2 1-2.5-1.6-2.5-2.5 0-2.6.2-2 3.7.3 2.1.6 4.4.6 5 0 .7.7 1.3 1.5 1.3s1.5.4 1.5 1c0 .5-.4 1-1 1s-.6 1 .1 2.7c1.3 3.5-.9 5.1-3.3 2.3-1.1-1.4-2.8-2-5.6-2-4 0-4 0-5.8-5.7-1.3-4-1.5-5.8-.7-6 .7-.3 1-1 .7-1.8-.4-.9.9-2.1 3.6-3.5 3.5-1.8 3.9-2.3 2.7-3.3-4.1-3.4-6.1-16.5-3-19.9 1.7-1.9 5.3-2.5 5.3-.8zm100.2 13c.5 5.2-1.8 10-4.9 10-.7 0-1.3.4-1.3 1 0 1.9-2 1-5.8-2.5-3.3-3.1-3.5-3.4-1.5-3.5 2.2 0 4.8 3.2 3.6 4.4-.3.3.1.6 1.1.6.9 0 1.5-.4 1.2-.9-.3-.5.1-1.1.9-1.5.8-.3 1.5-1 1.5-1.6 0-.7-.6-.8-1.9-.1-1.4.8-2.2.7-3.1-.4-1-1.2-.9-1.6.3-2.1.8-.3 2.1-.5 2.8-.3 2.6.3 4-.1 3.5-1-.4-.5 0-1.2.6-1.4 1-.4.9-.8-.2-1.6-1.2-.8-1.1-1 .8-.8 1.2 0 2.3.8 2.4 1.7zm4.6 19.8c1.2.2 2.2.8 2.2 1.3 0 2.2-9.4-.2-10.4-2.7-.3-.9-.1-1.2.4-.9.6.3 1 .2 1-.4 0-2 3.5-1.7 4 .4.3 1.1 1.6 2.1 2.8 2.3zm3.1 4.2c-1.5.8-7.9.2-7.9-.9 0-.3 2.1-.4 4.7-.2 2.9.2 4.1.6 3.2 1.1zm4.1 2.8c0 .9-.2 1-6.5 1.6-2.2.3-2.9.2-1.5-.1 1.4-.2 2.9-.9 3.5-1.4 1.1-1.1 4.5-1.2 4.5-.1z"/><path d="M73.2 126.3c-.2 3.2 0 3.8.8 2.5.6-.9.9-2.6.7-3.7-.6-3.7-1.3-3.1-1.5 1.2zM49 140.2c0 .7.8 3.5 1.8 6.1 1.6 4.2 2 4.6 3.2 3.3 1-1.3 1-1.6-.4-1.6s-1.5-.4-.6-2.1c1-1.7.8-2.1-1-2.6-1.2-.3-1.9-1.1-1.6-1.9.3-.7.1-1.6-.4-1.9-.6-.4-1 0-1 .7zM83.2 30.7c-.6.2-.9 1-.5 1.6.4.6 0 .8-.9.5-.9-.4-1.5 0-1.5.8 0 .9.6 1.3 1.6.9s.7.2-.6 1.5c-2.8 2.5-2.8 2.5-.3 2.7 1.1.1 1.8-.2 1.5-.8-.4-.5-.1-.9.5-.9s1-1 .8-2.3c-.3-2 .2-2.3 4.7-2.7 3.5-.4 4.5-.7 3.2-1.3-2.1-.8-6.5-.8-8.5 0zM74 34c0 1.1-.1 2.3-.2 2.7-.1.5.6.9 1.5 1.1 2.2.4 2.4-4.3.2-5.2-1-.4-1.5.1-1.5 1.4zm-57.3 3.4c-.5 1.3-1.5 1.6-3.7 1.2-1.6-.2-3-.1-3 .4 0 1.1 3.8 2 8.8 2 7 0 4.7 2-2.5 2.2l-6.8.2 7.5.6c4.1.4 5.9.7 4 .8-5.5.3-7 2-1.6 1.8 2.5 0 4.6-.4 4.7-.9.8-4.4.2-6.6-1.8-7-1.2-.2-2.4.1-2.7.7-.2.6-.8 0-1.3-1.3-.8-2.1-1.1-2.2-1.6-.7zM2 52.9c-2.2.6-2.3.8-.7 1.4 3 1.1 5.4.8 5.4-.8s-.8-1.7-4.7-.6zm16 2c-.6 1.2-2.1 2.1-3.3 2.1-1.6 0-1.8-.3-.9-.9 1-.6.7-1-1.3-1.3-1.7-.4-2.8-.1-3.2.8-.3.8-.8 1.2-1.2 1-.3-.2-1.5.2-2.6 1C3.8 58.9 3.9 59 7.6 59c7.2 0 11.3-1.1 12-3.2.8-2.8-.2-3.4-1.6-.9zm5 5.6c-.7.8-2.9 1.5-4.9 1.6-2 .1-4.7.5-6.1.9-1.6.5-.2.6 3.5.3 3.3-.3 6.5-1 7.2-1.5.6-.5 3.3-1.3 6-1.8l4.8-.8-4.6-.1c-3-.1-5.1.4-5.9 1.4zm42 .1c0 1.6 5.5 9.7 7.6 11.4 1.8 1.4 1.8 1.4.2-.6-1-1.1-1.8-2.3-1.8-2.7 0-.6-4.5-7.5-5.6-8.6-.2-.2-.4 0-.4.5zM0 61.9c0 .5 2 .9 4.4.8 2.4-.1 4.2-.5 3.9-.9-.6-1.1-8.3-1-8.3.1zm188.7 1.8c-1.3 1.2-.7 4.5 1.3 7s2 2.5 2 .4c0-1.2-.4-2-.9-1.6-.5.3-1.2.1-1.6-.5-.3-.5.1-1 .9-1 .9 0 1.6-.7 1.6-1.6 0-1.4-.2-1.5-1.7-.3-1.5 1.3-1.6 1.2-1.1-.9.6-2.3.5-2.6-.5-1.5zM2.3 74.4C.9 75 0 76.4 0 77.7c0 3 .8 2.9 2-.2.8-2 1.7-2.5 4.7-2.6 3 0 3.4-.2 1.8-.9-2.5-1.1-3.4-1-6.2.4zm85.3-.5c-.8 1.2 1.8 2.1 5.6 2.1 3.6 0 3.4-.7-.2-1.2-1.4-.2-3-.7-3.7-1.1-.6-.4-1.4-.3-1.7.2zm48.5 3.8c-1.2 1.6-2.5 3.3-3.1 4-.5.7-1 1.8-1 2.5 0 1.6 3.9-3.2 4-4.8 0-.6 1-1.9 2.3-2.7 1.2-.9 1.7-1.6 1-1.6-.6-.1-2.1 1.1-3.2 2.6zM8 77.8c0 1 4.5 2.1 10.9 2.7 3.8.4 3.1-1.1-.9-1.8-1.4-.3-4.2-.8-6.2-1.2-2.4-.4-3.8-.3-3.8.3zm141.6 2.4c-.3 1.3-.5 4.5-.5 7.3.2 4.7.2 4.5 1-2 .8-7.1.6-9.3-.5-5.3zm7 .5c.1 1.6.2 3.6.3 4.5 0 1 .6 1.8 1.1 1.8.6 0 .9-2 .8-4.5-.2-2.5-.8-4.5-1.3-4.5-.6 0-1 1.2-.9 2.7zm-100.9-.3c-.3.7.9 2.6 2.6 4.3 4.3 4 6.7 5.3 4.2 2.3-3.5-4.2-4.3-5-5.4-5-.6 0-.8-.7-.5-1.5.4-.8.4-1.5.1-1.5-.3 0-.7.6-1 1.4zm86.3 1.5c0 .7-.5.9-1.1.6-.5-.4-2.3-.1-4 .5-2.2 1-2.9 1.9-2.8 3.9 0 2.4.1 2.5 1 .6 1.2-2.4 4.8-4.9 5.7-4.1.3.4-.4 2-1.6 3.6-1.4 1.9-1.7 2.7-.8 2.4 1.7-.6 5.1-7.3 4.2-8.1-.3-.4-.6-.1-.6.6zm16.2 13.6c-1.5 3.2-1.5 3.5-.2 3.5.6 0 1-.9 1-2s.7-2 1.6-2c.8 0 1.2-.5.9-1-1-1.7-2.1-1.1-3.3 1.5zm-98.4 2.1c-.4.3 1.3 2.5 3.7 4.9 2.5 2.3 4.9 5.3 5.5 6.6 1 2.2 1 2.2.5-.6-.6-3.1-8.6-12.1-9.7-10.9zm126.9 1.2c-.5.7-.5 7.1-.1 14.2l.7 13-2.9.1c-3.4.1-7.8 1.6-5.4 2 2.5.3 12.5-.3 13-.8.2-.2-.2-.8-.9-1.2-.9-.6-1-1.1-.2-1.5.6-.4 1.1-1.4 1.1-2.3 0-1.3-.3-1.3-1.5-.3-1.3 1.1-1.5.4-1.4-5.3.1-3.5-.2-7.4-.5-8.5-.5-1.5-.2-2.2 1.1-2.5 1.6-.4 1.6-.5.1-.6-1.2-.1-1.8-1.2-2-3.9-.2-2.3-.6-3.2-1.1-2.4zM0 109.4c0 2.4 7.8 14.5 9.3 14.6.5 0 .6-.4.3-.9-.9-1.3 1.9-2.1 7.5-2.1 2.7 0 4.9-.4 4.9-.8s-2.5-.7-5.7-.6c-6 .2-6.8-.3-12.2-7.4-2-2.7-4.1-4.2-4.1-2.8z"/><path d="M.1 124.7c0 1.8.4 3.3 1 3.3.5 0 .7.4.4 1-.3.5-.1 1 .5 1s.8.4.5 1c-.3.5-.1 1 .4 1 1.9 0 1.2 1.8-.9 2.5-3 1-2.4 3.1 1.2 4.3l3.3 1-2.9.1-2.9.1.7 7c.4 4.5.2 7-.4 7-.5 0-1 1.3-1 3v3h9.6c7.2 0 9.5-.3 9.1-1.3-.4-1.3-1.1-1.3-6.5-.3-2.8.6-3.5.3-3.9-1.4-.5-2-2.3-2.8-2.3-1 0 .5-.9 1-2 1-1.8 0-1.8-.1-.2-2.9.9-1.6 2.1-2.7 2.7-2.3.5.3.2-.4-.7-1.5-1-1.1-1.8-3.4-1.8-5.1 0-2.6.3-3 2-2.7 1.1.2 1.8 0 1.5-.6-.4-.5-.1-.9.4-.9.6 0 1.1.7 1.1 1.6 0 1.5.2 1.5 2.5 0 1.3-.9 3.9-1.6 5.7-1.6 2.1 0 2.8-.3 2-.9-1-.6-.9-1.1.4-2.2 1.2-.9 1.5-1 1-.2-.4.7-.2 1.3.3 1.3.6 0 1.1-.4 1.1-.9 0-.4 3-.9 6.8-1 8.7-.2 10.8-.6 10.4-2-.1-.6.9-1.6 2.3-2.1 3.1-1.2 3.2-2.1.3-1.7-1.7.1-2.2-.3-2.3-2.3 0-1.7-.7-2.6-2.5-3.1-1.6-.4-1.9-.7-.7-.8.9-.1 1.7-.5 1.7-.9 0-.5-1-.8-2.2-.6-1.3.1-3.9.3-5.8.5l-3.5.2 4 .7 4 .7-4.8.2c-2.7 0-4.6-.2-4.4-.7.3-.4-1.7-.5-4.4-.4-2.7.2-4.9.8-4.9 1.4 0 .5-.4.6-1 .3-1-.6-1.4.6-1.1 3.7.3 2.6-1.4 2.2-2.7-.7-.6-1.4-1.9-2.5-2.8-2.5-1.3 0-1.5.7-1 3.5.6 2.8.4 3.5-.9 3.5-.8 0-1.6-1-1.7-2.3 0-1.2-.2-2.7-.3-3.2-.2-.6-.4-1.5-.5-2-.1-.6-.2-1.3-.1-1.7 0-.4-.6-.5-1.3-.2-.8.3-1.6-.2-1.9-1.3-.3-1-.5-.4-.6 1.4zm37.4 5.5c-.1 1.3-.3 2.6-.4 3 0 .5-1.9.8-4.2.8-2.2 0-3.8-.4-3.4-.9.3-.5.1-1.2-.5-1.6-.5-.3-1 0-1 .8 0 1.5-2.9 2.7-6.7 2.7-1.3 0-4.8 1.2-7.9 2.7-4.1 2-5.8 2.5-6.1 1.5-.3-.6-1.2-1.2-2.1-1.2-1-.1 0-1 2.1-2.1 2.2-1.1 4.1-1.8 4.5-1.5.9 1 3.2-1.5 3.2-3.5 0-1.1.9-2.1 2.3-2.4 2.3-.5 18.7-1.2 19.8-.8.4.1.5 1.3.4 2.5zm147.5 0c-.3 2.4-.3 5.1 0 9 .2 2.4.4 2.7.8 1.3.5-2 .5-2 1.3 0s.8 2 .8 0c0-2.8-2.7-12.4-2.9-10.3zm-69.4 18.3c-.2.7-.2 2.3.1 3.5.5 1.9 1.1 2.1 5.8 1.8 4-.2 5.1 0 4.7 1-.3.9.2 1.2 1.9.8 1.3-.3 5.4-.8 9.1-1.1 3.7-.4 7.1-1.1 7.4-1.7.4-.6.3-.9-.2-.6-.5.3-1.4 0-2.1-.7-1-1-.9-1.4.2-1.9.7-.2 1.6 0 1.9.7.2.7.5.5.5-.5.1-2.2-1.6-3.3-3.2-2-.7.6-3.3 1.2-5.7 1.4-2.9.2-4.4.7-4.2 1.5.3 1.9-6.3 1.6-8.2-.3-2.4-2.3-7.3-3.5-8-1.9zM33.5 161c2.4 1.1 16.9 1.1 21 0 1.9-.5-2-.8-10-.8-8.1 0-12.2.3-11 .8z"/></svg>